<?xml version="1.0" encoding="UTF-8" standalone="no"?>
<!-- Created with Inkscape (http://www.inkscape.org/) -->

<svg
   xmlns:dc="http://purl.org/dc/elements/1.1/"
   xmlns:cc="http://creativecommons.org/ns#"
   xmlns:rdf="http://www.w3.org/1999/02/22-rdf-syntax-ns#"
   xmlns:svg="http://www.w3.org/2000/svg"
   xmlns="http://www.w3.org/2000/svg"
   xmlns:sodipodi="http://sodipodi.sourceforge.net/DTD/sodipodi-0.dtd"
   xmlns:inkscape="http://www.inkscape.org/namespaces/inkscape"
   width="103.34873mm"
   height="15.96535mm"
   viewBox="0 0 103.34873 15.96535"
   version="1.1"
   id="svg8"
   sodipodi:docname="edxml-grammar-paths-3.svg"
   inkscape:version="0.92.3 (2405546, 2018-03-11)">
  <defs
     id="defs2">
    <marker
       inkscape:isstock="true"
       style="overflow:visible"
       id="marker4704"
       refX="0"
       refY="0"
       orient="auto"
       inkscape:stockid="Arrow1Send">
      <path
         transform="matrix(-0.2,0,0,-0.2,-1.2,0)"
         style="fill:#000000;fill-opacity:1;fill-rule:evenodd;stroke:#000000;stroke-width:1.00000003pt;stroke-opacity:1"
         d="M 0,0 5,-5 -12.5,0 5,5 Z"
         id="path4702"
         inkscape:connector-curvature="0" />
    </marker>
    <marker
       inkscape:stockid="Arrow2Lend"
       orient="auto"
       refY="0"
       refX="0"
       id="Arrow2Lend"
       style="overflow:visible"
       inkscape:isstock="true">
      <path
         id="path1009"
         style="fill:#000000;fill-opacity:1;fill-rule:evenodd;stroke:#000000;stroke-width:0.625;stroke-linejoin:round;stroke-opacity:1"
         d="M 8.7185878,4.0337352 -2.2072895,0.01601326 8.7185884,-4.0017078 c -1.7454984,2.3720609 -1.7354408,5.6174519 -6e-7,8.035443 z"
         transform="matrix(-1.1,0,0,-1.1,-1.1,0)"
         inkscape:connector-curvature="0" />
    </marker>
    <marker
       inkscape:stockid="Arrow1Lend"
       orient="auto"
       refY="0"
       refX="0"
       id="Arrow1Lend"
       style="overflow:visible"
       inkscape:isstock="true">
      <path
         id="path991"
         d="M 0,0 5,-5 -12.5,0 5,5 Z"
         style="fill:#000000;fill-opacity:1;fill-rule:evenodd;stroke:#000000;stroke-width:1.00000003pt;stroke-opacity:1"
         transform="matrix(-0.8,0,0,-0.8,-10,0)"
         inkscape:connector-curvature="0" />
    </marker>
  </defs>
  <sodipodi:namedview
     id="base"
     pagecolor="#ffffff"
     bordercolor="#666666"
     borderopacity="1.0"
     inkscape:pageopacity="0.0"
     inkscape:pageshadow="2"
     inkscape:zoom="0.66901786"
     inkscape:cx="41.311914"
     inkscape:cy="-184.14049"
     inkscape:document-units="mm"
     inkscape:current-layer="layer1"
     showgrid="false"
     inkscape:window-width="728"
     inkscape:window-height="1137"
     inkscape:window-x="202"
     inkscape:window-y="204"
     inkscape:window-maximized="0"
     fit-margin-top="0"
     fit-margin-left="0"
     fit-margin-right="0"
     fit-margin-bottom="0" />
  <metadata
     id="metadata5">
    <rdf:RDF>
      <cc:Work
         rdf:about="">
        <dc:format>image/svg+xml</dc:format>
        <dc:type
           rdf:resource="http://purl.org/dc/dcmitype/StillImage" />
        <dc:title></dc:title>
      </cc:Work>
    </rdf:RDF>
  </metadata>
  <g
     inkscape:label="Layer 1"
     inkscape:groupmode="layer"
     id="layer1"
     transform="translate(-47.034778,-92.149028)">
    <g
       transform="translate(0,53.150775)"
       id="g4682">
      <g
         aria-label="The handsome princess lived in a castle."
         style="font-style:normal;font-weight:normal;font-size:4.58611107px;line-height:2.64583325px;font-family:Sans;text-align:center;letter-spacing:0.26458332px;word-spacing:0px;text-anchor:middle;fill:#000000;fill-opacity:1;stroke:none;stroke-width:0.26458332px;stroke-linecap:butt;stroke-linejoin:miter;stroke-opacity:1"
         id="text4664">
        <path
           d="m 47.034778,44.429431 h 2.828251 v 0.380683 h -1.186835 v 2.96261 h -0.454581 v -2.96261 h -1.186835 z"
           style="stroke-width:0.26458332px"
           id="path7049"
           inkscape:connector-curvature="0" />
        <path
           d="m 52.633403,46.258949 v 1.513775 h -0.412034 v -1.500339 q 0,-0.356051 -0.138837,-0.532956 -0.138837,-0.176906 -0.416512,-0.176906 -0.333658,0 -0.526238,0.212735 -0.192581,0.212734 -0.192581,0.579982 v 1.417484 h -0.414273 v -3.484369 h 0.414273 v 1.36598 q 0.147794,-0.226171 0.347093,-0.338136 0.201538,-0.111966 0.463538,-0.111966 0.432187,0 0.653879,0.268718 0.221692,0.266478 0.221692,0.785998 z"
           style="stroke-width:0.26458332px"
           id="path7051"
           inkscape:connector-curvature="0" />
        <path
           d="m 55.869553,46.415701 v 0.201538 h -1.894458 q 0.02687,0.425469 0.255281,0.649401 0.23065,0.221692 0.640444,0.221692 0.237367,0 0.459059,-0.05822 0.223931,-0.05822 0.443383,-0.174666 v 0.38964 q -0.221691,0.09405 -0.45458,0.143316 -0.232888,0.04926 -0.472495,0.04926 -0.600135,0 -0.951707,-0.349332 -0.349333,-0.349333 -0.349333,-0.94499 0,-0.615811 0.331418,-0.97634 0.333658,-0.362769 0.897964,-0.362769 0.506085,0 0.799435,0.32694 0.295589,0.3247 0.295589,0.884528 z m -0.412034,-0.120923 q -0.0045,-0.338136 -0.190341,-0.539674 -0.183624,-0.201538 -0.48817,-0.201538 -0.344854,0 -0.55311,0.19482 -0.206017,0.19482 -0.237367,0.548632 z"
           style="stroke-width:0.26458332px"
           id="path7053"
           inkscape:connector-curvature="0" />
        <path
           d="m 60.619823,46.258949 v 1.513775 H 60.20779 v -1.500339 q 0,-0.356051 -0.138837,-0.532956 -0.138838,-0.176906 -0.416513,-0.176906 -0.333657,0 -0.526238,0.212735 -0.192581,0.212734 -0.192581,0.579982 v 1.417484 h -0.414272 v -3.484369 h 0.414272 v 1.36598 q 0.147795,-0.226171 0.347094,-0.338136 0.201538,-0.111966 0.463537,-0.111966 0.432188,0 0.653879,0.268718 0.221692,0.266478 0.221692,0.785998 z"
           style="fill:#a30000;fill-opacity:1"
           id="path7055"
           inkscape:connector-curvature="0" />
        <path
           d="m 62.850522,46.511991 q -0.499366,0 -0.691947,0.114205 -0.192581,0.114205 -0.192581,0.389641 0,0.219452 0.143316,0.349332 0.145555,0.127641 0.394119,0.127641 0.342615,0 0.548631,-0.241846 0.208256,-0.244085 0.208256,-0.647161 v -0.09181 z m 0.821828,-0.170187 v 1.43092 h -0.412034 v -0.380683 q -0.141076,0.22841 -0.351572,0.338136 -0.210495,0.107487 -0.515041,0.107487 -0.385162,0 -0.613572,-0.214974 -0.22617,-0.217213 -0.22617,-0.579982 0,-0.42323 0.282153,-0.638204 0.284393,-0.214973 0.84646,-0.214973 h 0.577742 v -0.04031 q 0,-0.284393 -0.188102,-0.438905 -0.185863,-0.156752 -0.523999,-0.156752 -0.214974,0 -0.418751,0.0515 -0.203778,0.0515 -0.39188,0.154513 V 45.3789 q 0.226171,-0.08733 0.438905,-0.129881 0.212735,-0.04479 0.414273,-0.04479 0.544153,0 0.81287,0.282154 0.268718,0.282153 0.268718,0.855417 z"
           style="fill:#a30000;fill-opacity:1"
           id="path7057"
           inkscape:connector-curvature="0" />
        <path
           d="m 66.872671,46.258949 v 1.513775 h -0.412033 v -1.500339 q 0,-0.356051 -0.138838,-0.532956 -0.138837,-0.176906 -0.416512,-0.176906 -0.333657,0 -0.526238,0.212735 -0.192581,0.212734 -0.192581,0.579982 v 1.417484 h -0.414273 v -2.508029 h 0.414273 v 0.38964 q 0.147795,-0.226171 0.347093,-0.338136 0.201538,-0.111966 0.463538,-0.111966 0.432187,0 0.653879,0.268718 0.221692,0.266478 0.221692,0.785998 z"
           style="fill:#a30000;fill-opacity:1"
           id="path7059"
           inkscape:connector-curvature="0" />
        <path
           d="m 69.613934,45.645378 v -1.357023 h 0.412034 v 3.484369 H 69.613934 V 47.39652 q -0.12988,0.223931 -0.329179,0.333657 -0.197059,0.107487 -0.474734,0.107487 -0.45458,0 -0.741212,-0.362768 -0.284393,-0.362769 -0.284393,-0.953947 0,-0.591179 0.284393,-0.953947 0.286632,-0.362769 0.741212,-0.362769 0.277675,0 0.474734,0.109727 0.199299,0.107487 0.329179,0.331418 z m -1.404049,0.875571 q 0,0.45458 0.185863,0.71434 0.188103,0.257521 0.515042,0.257521 0.32694,0 0.515042,-0.257521 0.188102,-0.25976 0.188102,-0.71434 0,-0.454581 -0.188102,-0.712102 -0.188102,-0.25976 -0.515042,-0.25976 -0.326939,0 -0.515042,0.25976 -0.185863,0.257521 -0.185863,0.712102 z"
           style="fill:#a30000;fill-opacity:1"
           id="path7061"
           inkscape:connector-curvature="0" />
        <path
           d="m 72.738118,45.338592 v 0.38964 q -0.174667,-0.08957 -0.362769,-0.134358 -0.188102,-0.04479 -0.38964,-0.04479 -0.306786,0 -0.461298,0.09405 -0.152274,0.09405 -0.152274,0.282154 0,0.143316 0.109727,0.22617 0.109726,0.08061 0.441144,0.154513 l 0.141077,0.03135 q 0.438905,0.09405 0.622529,0.266478 0.185862,0.170188 0.185862,0.476974 0,0.349332 -0.277674,0.55311 -0.275436,0.203777 -0.759127,0.203777 -0.201538,0 -0.420991,-0.04031 -0.217213,-0.03807 -0.459059,-0.116445 v -0.425469 q 0.22841,0.118684 0.450102,0.179145 0.221692,0.05822 0.438905,0.05822 0.291111,0 0.447863,-0.09853 0.156751,-0.100769 0.156751,-0.282153 0,-0.167948 -0.114204,-0.257521 -0.111966,-0.08957 -0.494888,-0.172427 l -0.143316,-0.03359 q -0.382923,-0.08062 -0.55311,-0.246325 -0.170188,-0.167948 -0.170188,-0.459059 0,-0.353811 0.250803,-0.546392 0.250803,-0.192581 0.712101,-0.192581 0.22841,0 0.429948,0.03359 0.201538,0.03359 0.371726,0.100769 z"
           style="fill:#a30000;fill-opacity:1"
           id="path7063"
           inkscape:connector-curvature="0" />
        <path
           d="m 74.76728,45.553566 q -0.331418,0 -0.523999,0.25976 -0.192581,0.257521 -0.192581,0.707623 0,0.450101 0.190342,0.709862 0.192581,0.257521 0.526238,0.257521 0.329179,0 0.52176,-0.259761 0.192581,-0.25976 0.192581,-0.707622 0,-0.445623 -0.192581,-0.705384 -0.192581,-0.261999 -0.52176,-0.261999 z m 0,-0.349333 q 0.537435,0 0.844221,0.349333 0.306786,0.349333 0.306786,0.967383 0,0.615811 -0.306786,0.967383 -0.306786,0.349332 -0.844221,0.349332 -0.539674,0 -0.84646,-0.349332 -0.304546,-0.351572 -0.304546,-0.967383 0,-0.61805 0.304546,-0.967383 0.306786,-0.349333 0.84646,-0.349333 z"
           style="fill:#a30000;fill-opacity:1"
           id="path7065"
           inkscape:connector-curvature="0" />
        <path
           d="m 78.8163,45.746147 q 0.154513,-0.277675 0.369486,-0.409794 0.214974,-0.13212 0.506085,-0.13212 0.39188,0 0.604614,0.275436 0.212735,0.273196 0.212735,0.77928 v 1.513775 h -0.414273 v -1.500339 q 0,-0.360529 -0.127641,-0.535195 -0.12764,-0.174667 -0.38964,-0.174667 -0.320222,0 -0.506084,0.212735 -0.185863,0.212734 -0.185863,0.579982 v 1.417484 h -0.414273 v -1.500339 q 0,-0.362768 -0.127641,-0.535195 -0.127641,-0.174667 -0.394119,-0.174667 -0.315743,0 -0.501606,0.214974 -0.185863,0.212735 -0.185863,0.577743 v 1.417484 h -0.414272 v -2.508029 h 0.414272 v 0.38964 q 0.141077,-0.230649 0.338137,-0.340375 0.197059,-0.109727 0.468016,-0.109727 0.273196,0 0.463537,0.138838 0.192581,0.138837 0.284393,0.403076 z"
           style="fill:#a30000;fill-opacity:1"
           id="path7067"
           inkscape:connector-curvature="0" />
        <path
           d="m 83.743132,46.415701 v 0.201538 h -1.894458 q 0.02687,0.425469 0.255281,0.649401 0.23065,0.221692 0.640444,0.221692 0.237367,0 0.459059,-0.05822 0.223931,-0.05822 0.443383,-0.174666 v 0.38964 q -0.221691,0.09405 -0.45458,0.143316 -0.232888,0.04926 -0.472495,0.04926 -0.600135,0 -0.951707,-0.349332 -0.349333,-0.349333 -0.349333,-0.94499 0,-0.615811 0.331418,-0.97634 0.333658,-0.362769 0.897964,-0.362769 0.506085,0 0.799435,0.32694 0.295589,0.3247 0.295589,0.884528 z m -0.412034,-0.120923 q -0.0045,-0.338136 -0.190341,-0.539674 -0.183624,-0.201538 -0.48817,-0.201538 -0.344854,0 -0.55311,0.19482 -0.206017,0.19482 -0.237367,0.548632 z"
           style="fill:#a30000;fill-opacity:1"
           id="path7069"
           inkscape:connector-curvature="0" />
        <path
           d="m 86.807198,47.39652 v 1.330151 h -0.414272 v -3.461976 h 0.414272 v 0.380683 q 0.129881,-0.223931 0.32694,-0.331418 0.199299,-0.109727 0.474734,-0.109727 0.45682,0 0.741212,0.362769 0.286632,0.362768 0.286632,0.953947 0,0.591178 -0.286632,0.953947 -0.284392,0.362768 -0.741212,0.362768 -0.275435,0 -0.474734,-0.107487 -0.197059,-0.109726 -0.32694,-0.333657 z m 1.40181,-0.875571 q 0,-0.454581 -0.188102,-0.712102 -0.185863,-0.25976 -0.512803,-0.25976 -0.326939,0 -0.515042,0.25976 -0.185863,0.257521 -0.185863,0.712102 0,0.45458 0.185863,0.71434 0.188103,0.257521 0.515042,0.257521 0.32694,0 0.512803,-0.257521 0.188102,-0.25976 0.188102,-0.71434 z"
           style="fill:#a30000;fill-opacity:1"
           id="path7071"
           inkscape:connector-curvature="0" />
        <path
           d="m 91.037604,45.649856 q -0.06942,-0.04031 -0.152273,-0.05822 -0.08061,-0.02015 -0.179145,-0.02015 -0.349333,0 -0.537435,0.22841 -0.185863,0.226171 -0.185863,0.65164 v 1.321194 h -0.414273 v -2.508029 h 0.414273 v 0.38964 q 0.12988,-0.22841 0.338136,-0.338136 0.208256,-0.111966 0.506085,-0.111966 0.04255,0 0.09405,0.0067 0.0515,0.0045 0.114205,0.01568 z"
           style="fill:#a30000;fill-opacity:1"
           id="path7073"
           inkscape:connector-curvature="0" />
        <path
           d="m 91.738854,45.264695 h 0.412034 v 2.508029 h -0.412034 z m 0,-0.97634 h 0.412034 v 0.521759 h -0.412034 z"
           style="fill:#a30000;fill-opacity:1"
           id="path7075"
           inkscape:connector-curvature="0" />
        <path
           d="m 95.360164,46.258949 v 1.513775 h -0.412033 v -1.500339 q 0,-0.356051 -0.138837,-0.532956 -0.138838,-0.176906 -0.416512,-0.176906 -0.333658,0 -0.526239,0.212735 -0.19258,0.212734 -0.19258,0.579982 v 1.417484 H 93.25969 v -2.508029 h 0.414273 v 0.38964 q 0.147794,-0.226171 0.347093,-0.338136 0.201538,-0.111966 0.463537,-0.111966 0.432188,0 0.65388,0.268718 0.221691,0.266478 0.221691,0.785998 z"
           style="fill:#a30000;fill-opacity:1"
           id="path7077"
           inkscape:connector-curvature="0" />
        <path
           d="m 98.25594,45.360985 v 0.385162 q -0.174666,-0.09629 -0.351572,-0.143316 -0.174666,-0.04927 -0.353811,-0.04927 -0.400837,0 -0.622529,0.255281 -0.221692,0.253043 -0.221692,0.712102 0,0.459059 0.221692,0.71434 0.221692,0.253043 0.622529,0.253043 0.179145,0 0.353811,-0.04703 0.176906,-0.04926 0.351572,-0.145555 v 0.380683 q -0.172427,0.08062 -0.35829,0.120923 -0.183623,0.04031 -0.391879,0.04031 -0.566546,0 -0.900204,-0.35605 -0.333657,-0.356051 -0.333657,-0.960665 0,-0.613572 0.335897,-0.965144 0.338136,-0.351572 0.924835,-0.351572 0.190342,0 0.371726,0.04031 0.181384,0.03807 0.351572,0.116444 z"
           style="fill:#a30000;fill-opacity:1"
           id="path7079"
           inkscape:connector-curvature="0" />
        <path
           d="m 101.38684,46.415701 v 0.201538 h -1.894455 q 0.02687,0.425469 0.255282,0.649401 0.230649,0.221692 0.640443,0.221692 0.23737,0 0.45906,-0.05822 0.22393,-0.05822 0.44338,-0.174666 v 0.38964 q -0.22169,0.09405 -0.45458,0.143316 -0.23289,0.04926 -0.47249,0.04926 -0.600138,0 -0.95171,-0.349332 -0.349333,-0.349333 -0.349333,-0.94499 0,-0.615811 0.331418,-0.97634 0.333658,-0.362769 0.897965,-0.362769 0.50608,0 0.79943,0.32694 0.29559,0.3247 0.29559,0.884528 z m -0.41203,-0.120923 q -0.004,-0.338136 -0.19034,-0.539674 -0.18363,-0.201538 -0.48817,-0.201538 -0.344856,0 -0.553112,0.19482 -0.206017,0.19482 -0.237367,0.548632 z"
           style="fill:#a30000;fill-opacity:1"
           id="path7081"
           inkscape:connector-curvature="0" />
        <path
           d="m 103.92657,45.338592 v 0.38964 q -0.17467,-0.08957 -0.36277,-0.134358 -0.1881,-0.04479 -0.38964,-0.04479 -0.30679,0 -0.4613,0.09405 -0.15227,0.09405 -0.15227,0.282154 0,0.143316 0.10972,0.22617 0.10973,0.08061 0.44115,0.154513 l 0.14107,0.03135 q 0.43891,0.09405 0.62253,0.266478 0.18587,0.170188 0.18587,0.476974 0,0.349332 -0.27768,0.55311 -0.27543,0.203777 -0.75913,0.203777 -0.20153,0 -0.42099,-0.04031 -0.21721,-0.03807 -0.45905,-0.116445 v -0.425469 q 0.22841,0.118684 0.4501,0.179145 0.22169,0.05822 0.4389,0.05822 0.29111,0 0.44786,-0.09853 0.15676,-0.100769 0.15676,-0.282153 0,-0.167948 -0.11421,-0.257521 -0.11196,-0.08957 -0.49489,-0.172427 l -0.14331,-0.03359 q -0.38292,-0.08062 -0.55311,-0.246325 -0.17019,-0.167948 -0.17019,-0.459059 0,-0.353811 0.2508,-0.546392 0.25081,-0.192581 0.7121,-0.192581 0.22841,0 0.42995,0.03359 0.20154,0.03359 0.37173,0.100769 z"
           style="fill:#a30000;fill-opacity:1"
           id="path7083"
           inkscape:connector-curvature="0" />
        <path
           d="m 106.58274,45.338592 v 0.38964 q -0.17467,-0.08957 -0.36277,-0.134358 -0.1881,-0.04479 -0.38964,-0.04479 -0.30679,0 -0.4613,0.09405 -0.15227,0.09405 -0.15227,0.282154 0,0.143316 0.10972,0.22617 0.10973,0.08061 0.44115,0.154513 l 0.14107,0.03135 q 0.43891,0.09405 0.62253,0.266478 0.18587,0.170188 0.18587,0.476974 0,0.349332 -0.27768,0.55311 -0.27543,0.203777 -0.75913,0.203777 -0.20153,0 -0.42099,-0.04031 -0.21721,-0.03807 -0.45905,-0.116445 v -0.425469 q 0.2284,0.118684 0.4501,0.179145 0.22169,0.05822 0.4389,0.05822 0.29111,0 0.44786,-0.09853 0.15676,-0.100769 0.15676,-0.282153 0,-0.167948 -0.11421,-0.257521 -0.11196,-0.08957 -0.49489,-0.172427 l -0.14331,-0.03359 q -0.38292,-0.08062 -0.55311,-0.246325 -0.17019,-0.167948 -0.17019,-0.459059 0,-0.353811 0.2508,-0.546392 0.25081,-0.192581 0.7121,-0.192581 0.22841,0 0.42995,0.03359 0.20154,0.03359 0.37173,0.100769 z"
           style="fill:#a30000;fill-opacity:1"
           id="path7085"
           inkscape:connector-curvature="0" />
        <path
           d="m 109.36465,44.288355 h 0.41204 v 3.484369 h -0.41204 z"
           style="stroke-width:0.26458332px"
           id="path7087"
           inkscape:connector-curvature="0" />
        <path
           d="m 110.90116,45.264695 h 0.41204 v 2.508029 h -0.41204 z m 0,-0.97634 h 0.41204 v 0.521759 h -0.41204 z"
           style="stroke-width:0.26458332px"
           id="path7089"
           inkscape:connector-curvature="0" />
        <path
           d="m 112.14209,45.264695 h 0.43666 l 0.78376,2.104953 0.78376,-2.104953 h 0.43667 l -0.94051,2.508029 h -0.55983 z"
           style="stroke-width:0.26458332px"
           id="path7091"
           inkscape:connector-curvature="0" />
        <path
           d="m 117.56157,46.415701 v 0.201538 h -1.89446 q 0.0269,0.425469 0.25528,0.649401 0.23065,0.221692 0.64044,0.221692 0.23737,0 0.45906,-0.05822 0.22393,-0.05822 0.44339,-0.174666 v 0.38964 q -0.22169,0.09405 -0.45458,0.143316 -0.23289,0.04926 -0.4725,0.04926 -0.60013,0 -0.95171,-0.349332 -0.34933,-0.349333 -0.34933,-0.94499 0,-0.615811 0.33142,-0.97634 0.33366,-0.362769 0.89796,-0.362769 0.50609,0 0.79944,0.32694 0.29559,0.3247 0.29559,0.884528 z m -0.41204,-0.120923 q -0.004,-0.338136 -0.19034,-0.539674 -0.18362,-0.201538 -0.48817,-0.201538 -0.34485,0 -0.55311,0.19482 -0.20601,0.19482 -0.23736,0.548632 z"
           style="stroke-width:0.26458332px"
           id="path7093"
           inkscape:connector-curvature="0" />
        <path
           d="m 120.15279,45.645378 v -1.357023 h 0.41204 v 3.484369 h -0.41204 V 47.39652 q -0.12988,0.223931 -0.32918,0.333657 -0.19706,0.107487 -0.47473,0.107487 -0.45458,0 -0.74121,-0.362768 -0.2844,-0.362769 -0.2844,-0.953947 0,-0.591179 0.2844,-0.953947 0.28663,-0.362769 0.74121,-0.362769 0.27767,0 0.47473,0.109727 0.1993,0.107487 0.32918,0.331418 z m -1.40405,0.875571 q 0,0.45458 0.18587,0.71434 0.1881,0.257521 0.51504,0.257521 0.32694,0 0.51504,-0.257521 0.1881,-0.25976 0.1881,-0.71434 0,-0.454581 -0.1881,-0.712102 -0.1881,-0.25976 -0.51504,-0.25976 -0.32694,0 -0.51504,0.25976 -0.18587,0.257521 -0.18587,0.712102 z"
           style="stroke-width:0.26458332px"
           id="path7095"
           inkscape:connector-curvature="0" />
        <path
           d="m 123.40273,45.264695 h 0.41203 v 2.508029 h -0.41203 z m 0,-0.97634 h 0.41203 v 0.521759 h -0.41203 z"
           style="stroke-width:0.26458332px"
           id="path7097"
           inkscape:connector-curvature="0" />
        <path
           d="m 127.02404,46.258949 v 1.513775 h -0.41203 v -1.500339 q 0,-0.356051 -0.13884,-0.532956 -0.13884,-0.176906 -0.41651,-0.176906 -0.33366,0 -0.52624,0.212735 -0.19258,0.212734 -0.19258,0.579982 v 1.417484 h -0.41427 v -2.508029 h 0.41427 v 0.38964 q 0.14779,-0.226171 0.34709,-0.338136 0.20154,-0.111966 0.46354,-0.111966 0.43219,0 0.65388,0.268718 0.22169,0.266478 0.22169,0.785998 z"
           style="stroke-width:0.26458332px"
           id="path7099"
           inkscape:connector-curvature="0" />
        <path
           d="m 130.97935,46.511991 q -0.49937,0 -0.69195,0.114205 -0.19258,0.114205 -0.19258,0.389641 0,0.219452 0.14332,0.349332 0.14555,0.127641 0.39412,0.127641 0.34261,0 0.54863,-0.241846 0.20825,-0.244085 0.20825,-0.647161 v -0.09181 z m 0.82183,-0.170187 v 1.43092 h -0.41204 v -0.380683 q -0.14107,0.22841 -0.35157,0.338136 -0.21049,0.107487 -0.51504,0.107487 -0.38516,0 -0.61357,-0.214974 -0.22617,-0.217213 -0.22617,-0.579982 0,-0.42323 0.28215,-0.638204 0.28439,-0.214973 0.84646,-0.214973 h 0.57774 v -0.04031 q 0,-0.284393 -0.1881,-0.438905 -0.18586,-0.156752 -0.524,-0.156752 -0.21497,0 -0.41875,0.0515 -0.20378,0.0515 -0.39188,0.154513 V 45.3789 q 0.22617,-0.08733 0.43891,-0.129881 0.21273,-0.04479 0.41427,-0.04479 0.54415,0 0.81287,0.282154 0.26872,0.282153 0.26872,0.855417 z"
           style="stroke-width:0.26458332px"
           id="path7101"
           inkscape:connector-curvature="0" />
        <path
           d="m 136.4462,45.360985 v 0.385162 q -0.17467,-0.09629 -0.35157,-0.143316 -0.17467,-0.04927 -0.35382,-0.04927 -0.40083,0 -0.62252,0.255281 -0.2217,0.253043 -0.2217,0.712102 0,0.459059 0.2217,0.71434 0.22169,0.253043 0.62252,0.253043 0.17915,0 0.35382,-0.04703 0.1769,-0.04926 0.35157,-0.145555 v 0.380683 q -0.17243,0.08062 -0.35829,0.120923 -0.18363,0.04031 -0.39188,0.04031 -0.56655,0 -0.9002,-0.35605 -0.33366,-0.356051 -0.33366,-0.960665 0,-0.613572 0.33589,-0.965144 0.33814,-0.351572 0.92484,-0.351572 0.19034,0 0.37173,0.04031 0.18138,0.03807 0.35157,0.116444 z"
           style="fill:#a30000;fill-opacity:1"
           id="path7103"
           inkscape:connector-curvature="0" />
        <path
           d="m 138.57165,46.511991 q -0.49937,0 -0.69195,0.114205 -0.19258,0.114205 -0.19258,0.389641 0,0.219452 0.14332,0.349332 0.14555,0.127641 0.39412,0.127641 0.34261,0 0.54863,-0.241846 0.20825,-0.244085 0.20825,-0.647161 v -0.09181 z m 0.82183,-0.170187 v 1.43092 h -0.41204 v -0.380683 q -0.14107,0.22841 -0.35157,0.338136 -0.21049,0.107487 -0.51504,0.107487 -0.38516,0 -0.61357,-0.214974 -0.22617,-0.217213 -0.22617,-0.579982 0,-0.42323 0.28215,-0.638204 0.28439,-0.214973 0.84646,-0.214973 h 0.57774 v -0.04031 q 0,-0.284393 -0.1881,-0.438905 -0.18586,-0.156752 -0.524,-0.156752 -0.21497,0 -0.41875,0.0515 -0.20378,0.0515 -0.39188,0.154513 V 45.3789 q 0.22617,-0.08733 0.43891,-0.129881 0.21273,-0.04479 0.41427,-0.04479 0.54415,0 0.81287,0.282154 0.26872,0.282153 0.26872,0.855417 z"
           style="fill:#a30000;fill-opacity:1"
           id="path7105"
           inkscape:connector-curvature="0" />
        <path
           d="m 142.10787,45.338592 v 0.38964 q -0.17466,-0.08957 -0.36277,-0.134358 -0.1881,-0.04479 -0.38964,-0.04479 -0.30678,0 -0.46129,0.09405 -0.15228,0.09405 -0.15228,0.282154 0,0.143316 0.10973,0.22617 0.10972,0.08061 0.44114,0.154513 l 0.14108,0.03135 q 0.4389,0.09405 0.62253,0.266478 0.18586,0.170188 0.18586,0.476974 0,0.349332 -0.27767,0.55311 -0.27544,0.203777 -0.75913,0.203777 -0.20154,0 -0.42099,-0.04031 -0.21721,-0.03807 -0.45906,-0.116445 v -0.425469 q 0.22841,0.118684 0.4501,0.179145 0.22169,0.05822 0.43891,0.05822 0.29111,0 0.44786,-0.09853 0.15675,-0.100769 0.15675,-0.282153 0,-0.167948 -0.1142,-0.257521 -0.11197,-0.08957 -0.49489,-0.172427 l -0.14332,-0.03359 q -0.38292,-0.08062 -0.55311,-0.246325 -0.17019,-0.167948 -0.17019,-0.459059 0,-0.353811 0.25081,-0.546392 0.2508,-0.192581 0.7121,-0.192581 0.22841,0 0.42995,0.03359 0.20153,0.03359 0.37172,0.100769 z"
           style="fill:#a30000;fill-opacity:1"
           id="path7107"
           inkscape:connector-curvature="0" />
        <path
           d="m 143.57272,44.552593 v 0.712102 h 0.8487 v 0.320221 h -0.8487 v 1.361502 q 0,0.306786 0.0829,0.394119 0.0851,0.08733 0.34261,0.08733 h 0.42323 v 0.344854 h -0.42323 q -0.47697,0 -0.65835,-0.176905 -0.18139,-0.179145 -0.18139,-0.649401 v -1.361502 h -0.30231 v -0.320221 h 0.30231 V 44.55259 Z"
           style="fill:#a30000;fill-opacity:1"
           id="path7109"
           inkscape:connector-curvature="0" />
        <path
           d="m 145.23016,44.288355 h 0.41204 v 3.484369 h -0.41204 z"
           style="fill:#a30000;fill-opacity:1"
           id="path7111"
           inkscape:connector-curvature="0" />
        <path
           d="m 148.91193,46.415701 v 0.201538 h -1.89446 q 0.0269,0.425469 0.25529,0.649401 0.23064,0.221692 0.64044,0.221692 0.23737,0 0.45906,-0.05822 0.22393,-0.05822 0.44338,-0.174666 v 0.38964 q -0.22169,0.09405 -0.45458,0.143316 -0.23289,0.04926 -0.47249,0.04926 -0.60014,0 -0.95171,-0.349332 -0.34933,-0.349333 -0.34933,-0.94499 0,-0.615811 0.33141,-0.97634 0.33366,-0.362769 0.89797,-0.362769 0.50608,0 0.79943,0.32694 0.29559,0.3247 0.29559,0.884528 z m -0.41203,-0.120923 q -0.004,-0.338136 -0.19034,-0.539674 -0.18363,-0.201538 -0.48817,-0.201538 -0.34486,0 -0.55311,0.19482 -0.20602,0.19482 -0.23737,0.548632 z"
           style="fill:#a30000;fill-opacity:1"
           id="path7113"
           inkscape:connector-curvature="0" />
        <path
           d="m 149.91101,47.203939 h 0.4725 v 0.568785 h -0.4725 z"
           style="stroke-width:0.26458332px"
           id="path7115"
           inkscape:connector-curvature="0" />
      </g>
      <g
         id="g4668"
         style="font-style:normal;font-weight:normal;font-size:4.58611107px;line-height:2.64583325px;font-family:Sans;text-align:center;letter-spacing:0.26458332px;word-spacing:0px;text-anchor:middle;fill:#000000;fill-opacity:1;stroke:none;stroke-width:0.26458332px;stroke-linecap:butt;stroke-linejoin:miter;stroke-opacity:1"
         transform="rotate(-90,16.855108,-18.636358)"
         aria-label="{">
        <path
           sodipodi:nodetypes="ccscsscsccscsscsccssssccssscsc"
           inkscape:connector-curvature="0"
           id="path4666"
           style="stroke-width:0.26458332px"
           d="m -51.246133,70.900282 v 0.322461 h -0.138837 c -0.371726,0 -0.621036,-0.05524 -0.74793,-0.165709 -0.125402,-0.110473 -0.188103,-0.330672 -0.188103,-0.660597 v -9.142909 c 0,-0.225424 -0.04031,-0.381429 -0.120922,-0.468016 -0.08062,-0.08659 -0.226917,-0.12988 -0.438906,-0.12988 h -0.136598 V 60.33541 h 0.136598 c 0.213481,0 0.359783,-0.04255 0.438906,-0.12764 0.08061,-0.08659 0.120922,-0.2411 0.120922,-0.463538 v -8.12893 c 0,-0.329925 0.0627,-0.549378 0.188103,-0.658358 0.126894,-0.110473 0.376204,-0.165709 0.74793,-0.165709 h 0.138837 v 0.320222 h -0.152273 c -0.210495,0 -0.34784,0.03284 -0.412033,0.09853 -0.06419,0.06569 -0.09629,0.203777 -0.09629,0.414272 v 8.146845 c 0,0.234381 -0.03434,0.404569 -0.103008,0.510563 -0.06718,0.105994 -0.182877,0.177652 -0.347094,0.214974 0.165709,0.04031 0.282154,0.113457 0.349333,0.219452 0.06718,0.105995 0.100769,0.275436 0.100769,0.508324 v 9.163063 c 0,0.210495 0.0321,0.348586 0.09629,0.414272 0.06419,0.06569 0.201538,0.09853 0.412033,0.09853 z" />
        <path
           d="m -51.246133,47.839583 v 0.322461 h -0.138837 c -0.371726,0 -0.621036,-0.05524 -0.74793,-0.165709 -0.125402,-0.110473 -0.188103,-0.330672 -0.188103,-0.660597 V 36.452862 c 0,-0.225424 -0.04031,-0.381429 -0.120922,-0.468016 -0.08062,-0.08659 -0.226917,-0.12988 -0.438906,-0.12988 h -0.136598 v -0.320222 h 0.136598 c 0.213481,0 0.359783,-0.04255 0.438906,-0.12764 0.08061,-0.08659 0.120922,-0.2411 0.120922,-0.463538 V 23.987191 c 0,-0.329925 0.0627,-0.549378 0.188103,-0.658358 0.126894,-0.110473 0.376204,-0.165709 0.74793,-0.165709 h 0.138837 v 0.320222 h -0.152273 c -0.210495,0 -0.34784,0.03284 -0.412033,0.09853 -0.06419,0.06569 -0.09629,0.203777 -0.09629,0.414272 v 10.97429 c 0,0.234381 -0.03434,0.404569 -0.103008,0.510563 -0.06718,0.105994 -0.182877,0.177652 -0.347094,0.214974 0.165709,0.04031 0.282154,0.113457 0.349333,0.219452 0.06718,0.105995 0.100769,0.275436 0.100769,0.508324 v 10.90303 c 0,0.210495 0.0321,0.348586 0.09629,0.414272 0.06419,0.06569 0.201538,0.09853 0.412033,0.09853 z"
           style="stroke-width:0.26458332px"
           id="path4684"
           inkscape:connector-curvature="0"
           sodipodi:nodetypes="ccscsscsccscsscsccssssccssscsc" />
      </g>
      <g
         aria-label="{"
         transform="rotate(-90,39.765625,-42.015625)"
         style="font-style:normal;font-weight:normal;font-size:4.58611107px;line-height:2.64583325px;font-family:Sans;text-align:center;letter-spacing:0.26458332px;word-spacing:0px;text-anchor:middle;fill:#000000;fill-opacity:1;stroke:none;stroke-width:0.26458332px;stroke-linecap:butt;stroke-linejoin:miter;stroke-opacity:1"
         id="g4672">
        <path
           d="m -51.246133,66.917569 v 0.322461 h -0.138837 c -0.371726,0 -0.621036,-0.05524 -0.74793,-0.165709 -0.125402,-0.110473 -0.188103,-0.330672 -0.188103,-0.660597 v -5.503946 c 0,-0.225424 -0.04031,-0.381429 -0.120922,-0.468016 -0.08062,-0.08659 -0.226917,-0.12988 -0.438906,-0.12988 h -0.136598 V 59.99166 h 0.136598 c 0.213481,0 0.359783,-0.04255 0.438906,-0.12764 0.08061,-0.08659 0.120922,-0.2411 0.120922,-0.463538 v -5.599935 c 0,-0.329925 0.0627,-0.549378 0.188103,-0.658358 0.126894,-0.110473 0.376204,-0.165709 0.74793,-0.165709 h 0.138837 v 0.320222 h -0.152273 c -0.210495,0 -0.34784,0.03284 -0.412033,0.09853 -0.06419,0.06569 -0.09629,0.203777 -0.09629,0.414272 v 5.61785 c 0,0.234381 -0.03434,0.404569 -0.103008,0.510563 -0.06718,0.105994 -0.182877,0.177652 -0.347094,0.214974 0.165709,0.04031 0.282154,0.113457 0.349333,0.219452 0.06718,0.105995 0.100769,0.275436 0.100769,0.508324 v 5.5241 c 0,0.210495 0.0321,0.348586 0.09629,0.414272 0.06419,0.06569 0.201538,0.09853 0.412033,0.09853 z"
           style="stroke-width:0.26458332px"
           id="path4670"
           inkscape:connector-curvature="0"
           sodipodi:nodetypes="ccscsscsccscsscsccssssccssscsc" />
      </g>
      <g
         aria-label="person"
         style="font-style:italic;font-variant:normal;font-weight:normal;font-stretch:normal;font-size:2.82222223px;line-height:2.64583325px;font-family:Sans;-inkscape-font-specification:'Sans Italic';text-align:center;letter-spacing:0.26458332px;word-spacing:0px;text-anchor:middle;fill:#000000;fill-opacity:1;stroke:none;stroke-width:0.26458332px;stroke-linecap:butt;stroke-linejoin:miter;stroke-opacity:1"
         id="text4676">
        <path
           d="m 91.865633,53.425706 q 0,-0.202571 -0.08819,-0.310058 -0.08819,-0.107487 -0.253559,-0.107487 -0.112999,0 -0.216352,0.05788 -0.101975,0.05788 -0.181901,0.168121 -0.07855,0.108865 -0.125402,0.263205 -0.04685,0.15434 -0.04685,0.305925 0,0.192925 0.08819,0.297656 0.08819,0.103353 0.250803,0.103353 0.11989,0 0.221864,-0.0565 0.103353,-0.0565 0.176389,-0.163986 0.07855,-0.112999 0.12678,-0.265962 0.04823,-0.152962 0.04823,-0.292144 z m -0.785482,-0.35829 q 0.101975,-0.133669 0.239779,-0.202571 0.139182,-0.0689 0.308681,-0.0689 0.237022,0 0.367936,0.155718 0.130913,0.15434 0.130913,0.434082 0,0.228754 -0.0813,0.436838 -0.0813,0.206706 -0.234266,0.370693 -0.101975,0.108865 -0.230133,0.166742 -0.128157,0.0565 -0.270095,0.0565 -0.163987,0 -0.275608,-0.06752 -0.111621,-0.0689 -0.166742,-0.20395 l -0.158475,0.818555 h -0.253559 l 0.41479,-2.130447 h 0.253559 z"
           style="font-style:italic;font-variant:normal;font-weight:normal;font-stretch:normal;font-size:2.82222223px;font-family:Sans;-inkscape-font-specification:'Sans Italic';stroke-width:0.26458332px"
           id="path7118"
           inkscape:connector-curvature="0" />
        <path
           d="m 93.878947,53.467047 q 0.0041,-0.02205 0.0055,-0.04548 0.0028,-0.02343 0.0028,-0.04685 0,-0.168121 -0.09922,-0.265962 -0.09784,-0.09784 -0.267339,-0.09784 -0.188791,0 -0.333485,0.119889 -0.144694,0.118511 -0.219108,0.337619 z m 0.220486,0.198438 h -1.179601 q -0.0083,0.05237 -0.01102,0.08268 -0.0028,0.03032 -0.0028,0.05237 0,0.191547 0.117133,0.296278 0.118511,0.104731 0.333485,0.104731 0.165365,0 0.312815,-0.03721 0.14745,-0.03721 0.27423,-0.108865 l -0.04823,0.250803 q -0.136425,0.05512 -0.282498,0.08268 -0.144694,0.02756 -0.2949,0.02756 -0.321083,0 -0.494715,-0.152963 -0.172255,-0.15434 -0.172255,-0.436838 0,-0.241156 0.08544,-0.447862 0.08682,-0.208084 0.253559,-0.370692 0.107487,-0.101975 0.254937,-0.157097 0.148828,-0.05512 0.315571,-0.05512 0.261827,0 0.416168,0.157096 0.155718,0.157096 0.155718,0.42168 0,0.06339 -0.0083,0.136426 -0.0083,0.07166 -0.02481,0.15434 z"
           style="font-style:italic;font-variant:normal;font-weight:normal;font-stretch:normal;font-size:2.82222223px;font-family:Sans;-inkscape-font-specification:'Sans Italic';stroke-width:0.26458332px"
           id="path7120"
           inkscape:connector-curvature="0" />
        <path
           d="m 95.78064,53.067416 q -0.03859,-0.02067 -0.08819,-0.03169 -0.04961,-0.01102 -0.106109,-0.01102 -0.202571,0 -0.354156,0.15434 -0.151584,0.152963 -0.201193,0.410656 l -0.155719,0.78686 H 94.621709 L 94.9235,52.83315 h 0.253559 l -0.04823,0.239778 q 0.100596,-0.133669 0.239778,-0.205327 0.14056,-0.07166 0.299034,-0.07166 0.04134,0 0.08131,0.0055 0.03996,0.0041 0.07993,0.01516 z"
           style="font-style:italic;font-variant:normal;font-weight:normal;font-stretch:normal;font-size:2.82222223px;font-family:Sans;-inkscape-font-specification:'Sans Italic';stroke-width:0.26458332px"
           id="path7122"
           inkscape:connector-curvature="0" />
        <path
           d="m 97.361249,52.878625 -0.04823,0.239779 q -0.100597,-0.05512 -0.212218,-0.08268 -0.111621,-0.02756 -0.230132,-0.02756 -0.199816,0 -0.315571,0.0689 -0.114377,0.06752 -0.114377,0.184657 0,0.136425 0.267339,0.209461 0.02067,0.0055 0.03032,0.0083 l 0.0813,0.0248 q 0.253559,0.07028 0.33762,0.14745 0.08544,0.07717 0.08544,0.21084 0,0.245291 -0.195681,0.399631 -0.194304,0.154341 -0.509874,0.154341 -0.122646,0 -0.257694,-0.02343 -0.135047,-0.02343 -0.297656,-0.07304 l 0.04961,-0.261827 q 0.139181,0.07166 0.274229,0.108865 0.135048,0.03721 0.259071,0.03721 0.186036,0 0.301791,-0.07993 0.117133,-0.07993 0.117133,-0.202572 0,-0.132292 -0.305925,-0.213596 l -0.02618,-0.0069 -0.08682,-0.02205 q -0.192925,-0.05099 -0.282497,-0.133669 -0.08957,-0.08406 -0.08957,-0.213596 0,-0.246669 0.184657,-0.391363 0.186035,-0.144694 0.504362,-0.144694 0.125402,0 0.243913,0.02067 0.119889,0.02067 0.235644,0.06201 z"
           style="font-style:italic;font-variant:normal;font-weight:normal;font-stretch:normal;font-size:2.82222223px;font-family:Sans;-inkscape-font-specification:'Sans Italic';stroke-width:0.26458332px"
           id="path7124"
           inkscape:connector-curvature="0" />
        <path
           d="m 98.403046,54.416516 q -0.271473,0 -0.429948,-0.166743 -0.157096,-0.168121 -0.157096,-0.457509 0,-0.16812 0.05374,-0.341753 0.05512,-0.175011 0.141937,-0.293522 0.136426,-0.184657 0.304547,-0.272852 0.168121,-0.08819 0.380338,-0.08819 0.263206,0 0.424436,0.163986 0.162609,0.163987 0.162609,0.42857 0,0.183279 -0.05374,0.36518 -0.05374,0.181901 -0.14056,0.301791 -0.135047,0.184657 -0.303168,0.272851 -0.168121,0.08819 -0.383095,0.08819 z m -0.323839,-0.63252 q 0,0.209462 0.08682,0.314193 0.08819,0.103353 0.265961,0.103353 0.254937,0 0.42168,-0.221864 0.16812,-0.223243 0.16812,-0.564996 0,-0.199816 -0.08957,-0.30179 -0.08957,-0.101975 -0.263205,-0.101975 -0.143316,0 -0.254937,0.06752 -0.111621,0.06614 -0.199816,0.202571 -0.06477,0.101975 -0.100597,0.232889 -0.03445,0.130913 -0.03445,0.270095 z"
           style="font-style:italic;font-variant:normal;font-weight:normal;font-stretch:normal;font-size:2.82222223px;font-family:Sans;-inkscape-font-specification:'Sans Italic';stroke-width:0.26458332px"
           id="path7126"
           inkscape:connector-curvature="0" />
        <path
           d="m 101.24869,53.444999 -0.18052,0.931554 h -0.25494 l 0.18053,-0.921908 q 0.0124,-0.06477 0.0193,-0.114377 0.007,-0.04961 0.007,-0.07855 0,-0.115756 -0.073,-0.180523 -0.073,-0.06477 -0.20395,-0.06477 -0.20394,0 -0.35139,0.136426 -0.14746,0.135047 -0.19293,0.367936 l -0.1695,0.855762 h -0.253558 l 0.299038,-1.543403 h 0.25356 l -0.051,0.242535 q 0.10611,-0.13367 0.25493,-0.206706 0.14883,-0.07304 0.31282,-0.07304 0.20395,0 0.31557,0.110243 0.113,0.110243 0.113,0.310058 0,0.04961 -0.007,0.106109 -0.006,0.0565 -0.0179,0.122646 z"
           style="font-style:italic;font-variant:normal;font-weight:normal;font-stretch:normal;font-size:2.82222223px;font-family:Sans;-inkscape-font-specification:'Sans Italic';stroke-width:0.26458332px"
           id="path7128"
           inkscape:connector-curvature="0" />
      </g>
      <g
         aria-label="building"
         style="font-style:italic;font-variant:normal;font-weight:normal;font-stretch:normal;font-size:2.82222223px;line-height:2.64583325px;font-family:Sans;-inkscape-font-specification:'Sans Italic';text-align:center;letter-spacing:0.26458332px;word-spacing:0px;text-anchor:middle;fill:#000000;fill-opacity:1;stroke:none;stroke-width:0.26458332px;stroke-linecap:butt;stroke-linejoin:miter;stroke-opacity:1"
         id="text4680">
        <path
           d="m 136.43096,53.433974 q 0,-0.199815 -0.0923,-0.312814 -0.0909,-0.112999 -0.25218,-0.112999 -0.11714,0 -0.22049,0.05788 -0.10197,0.0565 -0.17777,0.165365 -0.0799,0.114377 -0.12677,0.265961 -0.0455,0.150206 -0.0455,0.300413 0,0.190169 0.0896,0.299034 0.0909,0.107487 0.24943,0.107487 0.11989,0 0.22186,-0.05512 0.10198,-0.0565 0.17915,-0.165364 0.0785,-0.112999 0.12678,-0.263206 0.0482,-0.150206 0.0482,-0.286632 z m -0.78824,-0.366558 q 0.0937,-0.126779 0.23427,-0.198437 0.14193,-0.07304 0.29627,-0.07304 0.23703,0 0.37621,0.159852 0.14056,0.159853 0.14056,0.432704 0,0.223242 -0.0827,0.432704 -0.0813,0.209462 -0.23289,0.372071 -0.0992,0.107486 -0.22876,0.165364 -0.12953,0.05788 -0.27147,0.05788 -0.15021,0 -0.26045,-0.0689 -0.11024,-0.0689 -0.17914,-0.205328 l -0.0455,0.234267 h -0.25356 l 0.41755,-2.144228 h 0.25356 z"
           style="font-style:italic;font-variant:normal;font-weight:normal;font-stretch:normal;font-size:2.82222223px;font-family:Sans;-inkscape-font-specification:'Sans Italic';stroke-width:0.26458332px"
           id="path7131"
           inkscape:connector-curvature="0" />
        <path
           d="m 137.27845,53.764704 0.18052,-0.931554 h 0.25494 l -0.18052,0.921907 q -0.0138,0.06752 -0.0207,0.115756 -0.006,0.04823 -0.006,0.07993 0,0.117133 0.0717,0.181901 0.0717,0.06339 0.20257,0.06339 0.20395,0 0.35278,-0.137804 0.14883,-0.137804 0.19431,-0.370693 l 0.16949,-0.854383 h 0.25356 l -0.29903,1.543403 h -0.25356 l 0.051,-0.242535 q -0.10749,0.135048 -0.25632,0.209462 -0.14745,0.07304 -0.31419,0.07304 -0.20257,0 -0.31557,-0.110243 -0.113,-0.111621 -0.113,-0.310059 0,-0.04134 0.007,-0.103353 0.007,-0.06201 0.0207,-0.128157 z"
           style="font-style:italic;font-variant:normal;font-weight:normal;font-stretch:normal;font-size:2.82222223px;font-family:Sans;-inkscape-font-specification:'Sans Italic';stroke-width:0.26458332px"
           id="path7133"
           inkscape:connector-curvature="0" />
        <path
           d="m 139.66246,52.232325 h 0.25356 l -0.062,0.321083 h -0.25355 z m -0.11576,0.600825 h 0.25356 l -0.30179,1.543403 h -0.25356 z"
           style="font-style:italic;font-variant:normal;font-weight:normal;font-stretch:normal;font-size:2.82222223px;font-family:Sans;-inkscape-font-specification:'Sans Italic';stroke-width:0.26458332px"
           id="path7135"
           inkscape:connector-curvature="0" />
        <path
           d="m 140.70977,52.232325 h 0.25356 l -0.41755,2.144228 h -0.25356 z"
           style="font-style:italic;font-variant:normal;font-weight:normal;font-stretch:normal;font-size:2.82222223px;font-family:Sans;-inkscape-font-specification:'Sans Italic';stroke-width:0.26458332px"
           id="path7137"
           inkscape:connector-curvature="0" />
        <path
           d="m 142.41991,54.145042 q -0.10197,0.13367 -0.24116,0.202572 -0.13918,0.0689 -0.30868,0.0689 -0.23151,0 -0.36655,-0.157097 -0.13367,-0.158474 -0.13367,-0.432704 0,-0.228754 0.0813,-0.43546 0.0813,-0.208083 0.23565,-0.37207 0.10197,-0.108865 0.23013,-0.165365 0.12816,-0.05788 0.26871,-0.05788 0.14883,0 0.26183,0.07166 0.11438,0.07166 0.17639,0.205327 l 0.16537,-0.840603 h 0.25493 l -0.41754,2.144228 h -0.25494 z m -0.78686,-0.363802 q 0,0.199816 0.0896,0.311437 0.0909,0.111621 0.25081,0.111621 0.11851,0 0.21911,-0.0565 0.10197,-0.05788 0.17914,-0.169498 0.0813,-0.115756 0.12816,-0.26734 0.0469,-0.151584 0.0469,-0.299034 0,-0.191547 -0.091,-0.299034 -0.0896,-0.107487 -0.24805,-0.107487 -0.11989,0 -0.22324,0.0565 -0.10335,0.0565 -0.17639,0.162609 -0.0799,0.114377 -0.12816,0.265961 -0.0469,0.151584 -0.0469,0.290766 z"
           style="font-style:italic;font-variant:normal;font-weight:normal;font-stretch:normal;font-size:2.82222223px;font-family:Sans;-inkscape-font-specification:'Sans Italic';stroke-width:0.26458332px"
           id="path7139"
           inkscape:connector-curvature="0" />
        <path
           d="m 143.81311,52.232325 h 0.25356 l -0.062,0.321083 h -0.25356 z m -0.11576,0.600825 h 0.25356 l -0.30179,1.543403 h -0.25356 z"
           style="font-style:italic;font-variant:normal;font-weight:normal;font-stretch:normal;font-size:2.82222223px;font-family:Sans;-inkscape-font-specification:'Sans Italic';stroke-width:0.26458332px"
           id="path7141"
           inkscape:connector-curvature="0" />
        <path
           d="m 145.91599,53.444999 -0.18052,0.931554 h -0.25494 l 0.18053,-0.921908 q 0.0124,-0.06477 0.0193,-0.114377 0.007,-0.04961 0.007,-0.07855 0,-0.115756 -0.073,-0.180523 -0.073,-0.06477 -0.20395,-0.06477 -0.20395,0 -0.3514,0.136426 -0.14745,0.135047 -0.19292,0.367936 l -0.1695,0.855762 h -0.25356 l 0.29904,-1.543403 h 0.25355 l -0.051,0.242535 q 0.10611,-0.13367 0.25493,-0.206706 0.14883,-0.07304 0.31282,-0.07304 0.20395,0 0.31557,0.110243 0.113,0.110243 0.113,0.310058 0,0.04961 -0.007,0.106109 -0.006,0.0565 -0.0179,0.122646 z"
           style="font-style:italic;font-variant:normal;font-weight:normal;font-stretch:normal;font-size:2.82222223px;font-family:Sans;-inkscape-font-specification:'Sans Italic';stroke-width:0.26458332px"
           id="path7143"
           inkscape:connector-curvature="0" />
        <path
           d="m 148.08227,52.83315 -0.2632,1.351855 q -0.0758,0.392741 -0.29077,0.585667 -0.2136,0.192925 -0.57602,0.192925 -0.13367,0 -0.24805,-0.02067 -0.11437,-0.01929 -0.21359,-0.06063 l 0.0468,-0.246669 q 0.0937,0.06063 0.19844,0.08957 0.10473,0.02894 0.22324,0.02894 0.24116,0 0.3955,-0.132292 0.15571,-0.130913 0.20532,-0.377582 l 0.0221,-0.115755 q -0.10611,0.121267 -0.24667,0.184657 -0.14056,0.06339 -0.30316,0.06339 -0.23427,0 -0.36932,-0.154341 -0.13367,-0.155718 -0.13367,-0.427192 0,-0.213595 0.0813,-0.417545 0.0813,-0.205328 0.22875,-0.363802 0.0978,-0.104731 0.22738,-0.161231 0.13091,-0.0565 0.27285,-0.0565 0.15572,0 0.27147,0.07304 0.11576,0.07166 0.17226,0.203949 l 0.0441,-0.239778 z m -0.38172,0.566373 q 0,-0.187413 -0.0882,-0.289388 -0.0882,-0.101974 -0.2508,-0.101974 -0.1006,0 -0.19155,0.03996 -0.0909,0.03996 -0.15572,0.111621 -0.10473,0.118511 -0.16399,0.279742 -0.0579,0.159852 -0.0579,0.330729 0,0.190169 0.0882,0.292144 0.0896,0.101975 0.25632,0.101975 0.24115,0 0.40238,-0.21773 0.16123,-0.219108 0.16123,-0.547082 z"
           style="font-style:italic;font-variant:normal;font-weight:normal;font-stretch:normal;font-size:2.82222223px;font-family:Sans;-inkscape-font-specification:'Sans Italic';stroke-width:0.26458332px"
           id="path7145"
           inkscape:connector-curvature="0" />
      </g>
      <g
         aria-label="person"
         style="font-style:italic;font-variant:normal;font-weight:normal;font-stretch:normal;font-size:2.82222223px;line-height:2.64583325px;font-family:Sans;-inkscape-font-specification:'Sans Italic';text-align:center;letter-spacing:0.26458332px;word-spacing:0px;text-anchor:middle;fill:#000000;fill-opacity:1;stroke:none;stroke-width:0.26458332px;stroke-linecap:butt;stroke-linejoin:miter;stroke-opacity:1"
         id="text4688">
        <path
           d="m 66.955576,53.425706 q 0,-0.202571 -0.08819,-0.310058 -0.0882,-0.107487 -0.253559,-0.107487 -0.113,0 -0.216352,0.05788 -0.101975,0.05788 -0.181901,0.168121 -0.07855,0.108865 -0.125402,0.263205 -0.04685,0.15434 -0.04685,0.305925 0,0.192925 0.08819,0.297656 0.08819,0.103353 0.250803,0.103353 0.11989,0 0.221864,-0.0565 0.103353,-0.0565 0.176389,-0.163986 0.07855,-0.112999 0.12678,-0.265962 0.04823,-0.152962 0.04823,-0.292144 z m -0.785482,-0.35829 q 0.101975,-0.133669 0.239779,-0.202571 0.139182,-0.0689 0.308681,-0.0689 0.237022,0 0.367936,0.155718 0.130913,0.15434 0.130913,0.434082 0,0.228754 -0.0813,0.436838 -0.0813,0.206706 -0.234266,0.370693 -0.101975,0.108865 -0.230133,0.166742 -0.128157,0.0565 -0.270095,0.0565 -0.163987,0 -0.275608,-0.06752 -0.111621,-0.0689 -0.166743,-0.20395 l -0.158474,0.818555 h -0.253559 l 0.41479,-2.130447 h 0.253559 z"
           style="font-style:italic;font-variant:normal;font-weight:normal;font-stretch:normal;font-size:2.82222223px;font-family:Sans;-inkscape-font-specification:'Sans Italic';stroke-width:0.26458332px"
           id="path7036"
           inkscape:connector-curvature="0" />
        <path
           d="m 68.96889,53.467047 q 0.0041,-0.02205 0.0055,-0.04548 0.0028,-0.02343 0.0028,-0.04685 0,-0.168121 -0.09922,-0.265962 -0.09784,-0.09784 -0.267339,-0.09784 -0.188791,0 -0.333485,0.119889 -0.144694,0.118511 -0.219108,0.337619 z m 0.220486,0.198438 h -1.179601 q -0.0083,0.05237 -0.01102,0.08268 -0.0028,0.03032 -0.0028,0.05237 0,0.191547 0.117133,0.296278 0.118511,0.104731 0.333485,0.104731 0.165365,0 0.312815,-0.03721 0.14745,-0.03721 0.27423,-0.108865 l -0.04823,0.250803 q -0.136426,0.05512 -0.282498,0.08268 -0.144694,0.02756 -0.2949,0.02756 -0.321083,0 -0.494715,-0.152963 -0.172255,-0.15434 -0.172255,-0.436838 0,-0.241156 0.08544,-0.447862 0.08682,-0.208084 0.253559,-0.370692 0.107487,-0.101975 0.254937,-0.157097 0.148828,-0.05512 0.315571,-0.05512 0.261827,0 0.416168,0.157096 0.155718,0.157096 0.155718,0.42168 0,0.06339 -0.0083,0.136426 -0.0083,0.07166 -0.02481,0.15434 z"
           style="font-style:italic;font-variant:normal;font-weight:normal;font-stretch:normal;font-size:2.82222223px;font-family:Sans;-inkscape-font-specification:'Sans Italic';stroke-width:0.26458332px"
           id="path7038"
           inkscape:connector-curvature="0" />
        <path
           d="m 70.870583,53.067416 q -0.03859,-0.02067 -0.08819,-0.03169 -0.04961,-0.01102 -0.106109,-0.01102 -0.202571,0 -0.354156,0.15434 -0.151584,0.152963 -0.201193,0.410656 l -0.155719,0.78686 h -0.253559 l 0.301791,-1.543403 h 0.253559 l -0.04823,0.239778 q 0.100597,-0.133669 0.239779,-0.205327 0.14056,-0.07166 0.299034,-0.07166 0.04134,0 0.08131,0.0055 0.03996,0.0041 0.07993,0.01516 z"
           style="font-style:italic;font-variant:normal;font-weight:normal;font-stretch:normal;font-size:2.82222223px;font-family:Sans;-inkscape-font-specification:'Sans Italic';stroke-width:0.26458332px"
           id="path7040"
           inkscape:connector-curvature="0" />
        <path
           d="m 72.451192,52.878625 -0.04823,0.239779 q -0.100597,-0.05512 -0.212218,-0.08268 -0.111621,-0.02756 -0.230132,-0.02756 -0.199816,0 -0.315571,0.0689 -0.114377,0.06752 -0.114377,0.184657 0,0.136425 0.267339,0.209461 0.02067,0.0055 0.03032,0.0083 l 0.0813,0.0248 q 0.253559,0.07028 0.33762,0.14745 0.08544,0.07717 0.08544,0.21084 0,0.245291 -0.195681,0.399631 -0.194304,0.154341 -0.509874,0.154341 -0.122646,0 -0.257694,-0.02343 -0.135047,-0.02343 -0.297656,-0.07304 l 0.04961,-0.261827 q 0.139182,0.07166 0.27423,0.108865 0.135048,0.03721 0.259071,0.03721 0.186035,0 0.301791,-0.07993 0.117133,-0.07993 0.117133,-0.202572 0,-0.132292 -0.305925,-0.213596 l -0.02618,-0.0069 -0.08682,-0.02205 q -0.192925,-0.05099 -0.282498,-0.133669 -0.08957,-0.08406 -0.08957,-0.213596 0,-0.246669 0.184657,-0.391363 0.186035,-0.144694 0.504362,-0.144694 0.125402,0 0.243913,0.02067 0.119889,0.02067 0.235644,0.06201 z"
           style="font-style:italic;font-variant:normal;font-weight:normal;font-stretch:normal;font-size:2.82222223px;font-family:Sans;-inkscape-font-specification:'Sans Italic';stroke-width:0.26458332px"
           id="path7042"
           inkscape:connector-curvature="0" />
        <path
           d="m 73.492989,54.416516 q -0.271473,0 -0.429948,-0.166743 -0.157096,-0.168121 -0.157096,-0.457509 0,-0.16812 0.05374,-0.341753 0.05512,-0.175011 0.141938,-0.293522 0.136426,-0.184657 0.304547,-0.272852 0.16812,-0.08819 0.380338,-0.08819 0.263206,0 0.424436,0.163986 0.162609,0.163987 0.162609,0.42857 0,0.183279 -0.05374,0.36518 -0.05374,0.181901 -0.14056,0.301791 -0.135047,0.184657 -0.303168,0.272851 -0.168121,0.08819 -0.383095,0.08819 z m -0.323839,-0.63252 q 0,0.209462 0.08682,0.314193 0.08819,0.103353 0.265961,0.103353 0.254937,0 0.42168,-0.221864 0.16812,-0.223243 0.16812,-0.564996 0,-0.199816 -0.08957,-0.30179 -0.08957,-0.101975 -0.263205,-0.101975 -0.143316,0 -0.254937,0.06752 -0.111622,0.06614 -0.199816,0.202571 -0.06477,0.101975 -0.100597,0.232889 -0.03445,0.130913 -0.03445,0.270095 z"
           style="font-style:italic;font-variant:normal;font-weight:normal;font-stretch:normal;font-size:2.82222223px;font-family:Sans;-inkscape-font-specification:'Sans Italic';stroke-width:0.26458332px"
           id="path7044"
           inkscape:connector-curvature="0" />
        <path
           d="m 76.338638,53.444999 -0.180523,0.931554 h -0.254937 l 0.180523,-0.921908 q 0.0124,-0.06477 0.01929,-0.114377 0.0069,-0.04961 0.0069,-0.07855 0,-0.115756 -0.07304,-0.180523 -0.07304,-0.06477 -0.203949,-0.06477 -0.20395,0 -0.3514,0.136426 -0.14745,0.135047 -0.192925,0.367936 l -0.169499,0.855762 h -0.253559 l 0.299034,-1.543403 h 0.253559 l -0.05099,0.242535 q 0.106109,-0.13367 0.254937,-0.206706 0.148828,-0.07304 0.312815,-0.07304 0.203949,0 0.31557,0.110243 0.112999,0.110243 0.112999,0.310058 0,0.04961 -0.0069,0.106109 -0.0055,0.0565 -0.01791,0.122646 z"
           style="font-style:italic;font-variant:normal;font-weight:normal;font-stretch:normal;font-size:2.82222223px;font-family:Sans;-inkscape-font-specification:'Sans Italic';stroke-width:0.26458332px"
           id="path7046"
           inkscape:connector-curvature="0" />
      </g>
    </g>
    <path
       sodipodi:nodetypes="cc"
       inkscape:connector-curvature="0"
       id="path4700"
       d="m 71.443501,95.716042 c 13.090833,-4.621164 22.215044,-4.458758 25.536974,1.077781"
       style="fill:none;fill-rule:evenodd;stroke:#000000;stroke-width:0.565;stroke-linecap:butt;stroke-linejoin:miter;stroke-miterlimit:4;stroke-dasharray:none;stroke-opacity:1;marker-end:url(#marker4704)" />
  </g>
</svg>
