<?xml version="1.0" encoding="UTF-8" standalone="no"?>
<svg
   xmlns:dc="http://purl.org/dc/elements/1.1/"
   xmlns:cc="http://creativecommons.org/ns#"
   xmlns:rdf="http://www.w3.org/1999/02/22-rdf-syntax-ns#"
   xmlns:svg="http://www.w3.org/2000/svg"
   xmlns="http://www.w3.org/2000/svg"
   xmlns:xlink="http://www.w3.org/1999/xlink"
   height="150.74432"
   width="148.74432"
   id="svg16"
   version="1.1"
   viewBox="0 0 148.84 150.74432">
  <metadata
     id="metadata22">
    <rdf:RDF>
      <cc:Work
         rdf:about="">
        <dc:format>image/svg+xml</dc:format>
        <dc:type
           rdf:resource="http://purl.org/dc/dcmitype/StillImage" />
        <dc:title></dc:title>
      </cc:Work>
    </rdf:RDF>
  </metadata>
  <defs
     id="defs20" />
  <path
     style="fill:#000000;stroke:none;stroke-width:1.7443248;fill-opacity:1"
     id="path12"
     d="M 73.255814,0 C 32.801163,0 0,34.029053 0,76.001221 c 0,33.585939 20.987778,62.068599 50.099991,72.114989 3.662811,0.69775 4.99884,-1.65161 4.99884,-3.65576 l -0.104645,-14.14893 c -20.3721,4.59253 -24.676757,-8.96142 -24.676757,-8.96142 -3.33487,-8.77686 -8.133118,-11.11402 -8.133118,-11.11402 -6.657562,-4.71289 0.523254,-4.62207 0.523254,-4.62207 7.355225,0.52857 11.227326,7.8313 11.227326,7.8313 6.537201,11.61646 17.150573,8.25708 21.319183,6.30884 0.66629,-4.90112 2.563934,-8.25708 4.649994,-10.15112 -16.261047,-1.9187 -33.366272,-8.4419 -33.366272,-37.5647 0,-8.302246 2.856964,-15.074951 7.534882,-20.396484 -0.746521,-1.928955 -3.268616,-9.662842 0.723846,-20.122559 0,0 6.143005,-2.040771 20.145325,7.792969 5.839538,-1.691895 12.104675,-2.529053 18.313965,-2.555176 6.223266,0.02783 12.491851,0.87207 18.340118,2.563965 13.977908,-9.844238 20.127898,-7.793213 20.127898,-7.793213 4.00641,10.470459 1.48258,18.191895 0.73258,20.114014 4.69534,5.319824 7.52963,12.092529 7.52963,20.396484 0,29.19775 -17.13312,35.62671 -33.453493,37.50879 2.638977,2.35474 4.970947,6.97681 4.970947,14.06518 l -0.09769,20.85523 c 0,2.02319 1.332551,4.38843 5.04419,3.66284 C 125.54128,138.05225 146.51164,109.56982 146.51164,76.001221 146.51164,34.029053 113.71046,0 73.255814,0 Z" />
  <use
     xlink:href="#p0j7Bjwo6pvHUkQ6KO5AtM.sym"
     x="0.8721624"
     y="0.8721624"
     id="use4"
     width="100%"
     height="100%" />
  <symbol
     style="overflow:visible"
     tags="social media, github"
     overflow="visible"
     id="p0j7Bjwo6pvHUkQ6KO5AtM.sym">
    <title
       id="title8">Github</title>
    <desc
       id="desc10">Github social media icon</desc>
    <g
       size="148.74432479966788,150.74432479966788,0.8721623998339427,0.8721623998339427"
       unit="{&quot;strokeWidth&quot;:&quot;px&quot;}"
       class=""
       id="k6so4oz84z6" />
  </symbol>
</svg>
