<?xml version="1.0" encoding="UTF-8" standalone="no"?>
<svg
   xmlns:dc="http://purl.org/dc/elements/1.1/"
   xmlns:cc="http://creativecommons.org/ns#"
   xmlns:rdf="http://www.w3.org/1999/02/22-rdf-syntax-ns#"
   xmlns:svg="http://www.w3.org/2000/svg"
   xmlns="http://www.w3.org/2000/svg"
   id="svg2432"
   version="1.1"
   viewBox="0 0 23.035114 38.285557"
   height="38.285557mm"
   width="23.035114mm">
  <defs
     id="defs2426" />
  <metadata
     id="metadata2429">
    <rdf:RDF>
      <cc:Work
         rdf:about="">
        <dc:format>image/svg+xml</dc:format>
        <dc:type
           rdf:resource="http://purl.org/dc/dcmitype/StillImage" />
        <dc:title></dc:title>
      </cc:Work>
    </rdf:RDF>
  </metadata>
  <g
     transform="translate(-63.093829,-29.841616)"
     id="layer1">
    <g
       transform="matrix(0.21868013,0,0,0.21868013,55.547644,20.747979)"
       id="g6558">
      <path
         style="opacity:1;vector-effect:none;fill:#fdfdfd;fill-opacity:1;fill-rule:evenodd;stroke:#aa89e9;stroke-width:6.66499996;stroke-linecap:butt;stroke-linejoin:miter;stroke-miterlimit:4;stroke-dasharray:none;stroke-dashoffset:0;stroke-opacity:1"
         d="m 37.885614,110.89973 c -0.09695,6.15679 -10e-7,61.94809 -10e-7,61.94809 0.682624,28.6702 24.403796,41.2134 41.213404,40.44545 18.686821,0.17066 41.469383,-17.06559 42.237333,-38.65356 l 1e-5,-16.12699 c 0,0 22.74348,0.76116 12.5432,-17.91887 L 112.6329,101.6843 c 0,0 -9.62735,-19.588143 -35.325771,-19.454772 -25.698417,0.133371 -39.324561,22.513402 -39.421515,28.670202 z"
         id="path23" />
      <path
         style="color:#000000;clip-rule:nonzero;display:inline;overflow:visible;visibility:visible;opacity:1;isolation:auto;mix-blend-mode:normal;color-interpolation:sRGB;color-interpolation-filters:linearRGB;solid-color:#000000;solid-opacity:1;vector-effect:none;fill:#5c25c1;fill-opacity:1;fill-rule:evenodd;stroke:none;stroke-width:4.56500006;stroke-linecap:butt;stroke-linejoin:miter;stroke-miterlimit:4;stroke-dasharray:none;stroke-dashoffset:0;stroke-opacity:1;marker:none;color-rendering:auto;image-rendering:auto;shape-rendering:auto;text-rendering:auto;enable-background:accumulate"
         d="m 108.02519,130.22649 a 6.0156212,6.0156212 0 0 1 -6.01562,6.01562 6.0156212,6.0156212 0 0 1 -6.015624,-6.01562 6.0156212,6.0156212 0 0 1 6.015624,-6.01562 6.0156212,6.0156212 0 0 1 6.01562,6.01562 z"
         id="path830" />
    </g>
    <g
       transform="matrix(0.25837932,0,0,0.25837932,556.72875,444.03759)"
       aria-label="a"
       style="font-style:normal;font-weight:normal;font-size:48.99456787px;line-height:0.51036006px;font-family:Sans;letter-spacing:0px;word-spacing:0px;fill:#7776e4;fill-opacity:1;stroke:none;stroke-width:0.2239309px;stroke-linecap:butt;stroke-linejoin:miter;stroke-opacity:1"
       id="text853">
      <path
         d="m -1881.3936,-1547.3743 q -0.2871,-0.072 -0.6459,-0.1435 -0.3589,-0.072 -0.8613,-0.1436 -0.4784,-0.072 -1.1483,-0.096 -0.6459,-0.048 -1.5311,-0.048 -2.3444,0 -3.9234,0.9569 -1.555,0.933 -2.488,2.5119 -0.933,1.555 -1.3397,3.5885 -0.3827,2.0335 -0.3827,4.1866 0,1.3875 0.2631,2.5597 0.2871,1.1483 0.7656,2.0096 0.4784,0.8373 1.1004,1.3157 0.622,0.4546 1.3397,0.4546 1.0526,0 2.1053,-0.8134 1.0765,-0.8134 2.0574,-2.0813 0.9808,-1.2919 1.842,-2.8708 0.8613,-1.6028 1.4833,-3.1578 0.6459,-1.579 1.0047,-2.9665 0.3589,-1.3876 0.3589,-2.2249 z m 1.7942,20.6217 q -0.2631,-0.5741 -0.4784,-1.5789 -0.1914,-1.0048 -0.335,-2.1291 -0.1196,-1.1484 -0.1914,-2.2727 -0.072,-1.1244 -0.072,-1.9139 v -1.9138 q -0.7177,1.866 -1.7225,3.732 -0.9808,1.842 -2.2727,3.3253 -1.2679,1.4832 -2.8468,2.4162 -1.579,0.933 -3.445,0.933 -1.5071,0 -2.8229,-0.6698 -1.3158,-0.6699 -2.2966,-1.9857 -0.9569,-1.3157 -1.5072,-3.2535 -0.5502,-1.9617 -0.5502,-4.4975 0,-2.8469 0.7655,-5.5502 0.7656,-2.7272 2.3445,-4.8325 1.5789,-2.1291 4.0191,-3.3971 2.4401,-1.2918 5.7894,-1.2918 2.3205,0 4.3779,0.311 2.0574,0.2871 3.8756,0.7655 v 11.1243 q 0,4.5214 0.4306,7.6075 0.4306,3.0622 1.1244,5.0717 z"
         style="font-style:normal;font-variant:normal;font-weight:normal;font-stretch:normal;font-size:48.99456787px;line-height:0.51036006px;font-family:'Andika New Basic';-inkscape-font-specification:'Andika New Basic';letter-spacing:0px;fill:#7776e4;fill-opacity:1;stroke-width:0.2239309px"
         id="path55" />
    </g>
    <g
       transform="matrix(0.25837932,0,0,0.25837932,556.72875,444.03759)"
       aria-label="b"
       style="font-style:normal;font-weight:normal;font-size:32.1462822px;line-height:0.33485708px;font-family:Sans;letter-spacing:0px;word-spacing:0px;fill:#7776e4;fill-opacity:1;stroke:none;stroke-width:0.2239309px;stroke-linecap:butt;stroke-linejoin:miter;stroke-opacity:1"
       id="text857">
      <path
         d="m -1864.641,-1574.3321 v 12.1648 q 0.5494,-0.7221 1.1929,-1.3342 0.6436,-0.6122 1.3813,-1.0674 0.7535,-0.4552 1.6168,-0.7063 0.8633,-0.2669 1.8521,-0.2669 1.193,0 2.1818,0.5808 0.9889,0.5808 1.711,1.6324 0.722,1.036 1.1144,2.4801 0.4081,1.444 0.4081,3.155 0,2.0248 -0.5494,3.6572 -0.5336,1.6325 -1.5225,2.794 -0.9889,1.1615 -2.4016,1.7894 -1.397,0.6278 -3.1393,0.6278 -0.9574,0 -1.8521,-0.1412 -0.8947,-0.1256 -1.7423,-0.3297 -0.8319,-0.2197 -1.6168,-0.4552 -0.7848,-0.2511 -1.5382,-0.4865 v -18.5689 q 0,-1.0046 -0.031,-2.0092 -0.016,-1.0202 -0.063,-1.9306 -0.047,-0.9261 -0.1413,-1.5854 z m 0,22.2105 q 0.5808,0.2354 1.0517,0.4081 0.4866,0.157 0.9418,0.2668 0.4552,0.094 0.8947,0.1413 0.4552,0.047 0.9574,0.047 1.036,0 1.915,-0.4238 0.879,-0.4238 1.5069,-1.1929 0.6435,-0.7692 1.0045,-1.8522 0.3611,-1.0988 0.3611,-2.4173 0,-1.3028 -0.2355,-2.3544 -0.2354,-1.0517 -0.6906,-1.7737 -0.4395,-0.7378 -1.0988,-1.1302 -0.6592,-0.3924 -1.5068,-0.3924 -0.7378,0 -1.4755,0.3296 -0.7377,0.314 -1.4127,0.8947 -0.6592,0.5808 -1.24,1.397 -0.5808,0.8005 -0.9732,1.7737 z"
         style="font-style:normal;font-variant:normal;font-weight:normal;font-stretch:normal;font-size:32.1462822px;line-height:0.33485708px;font-family:'Andika New Basic';-inkscape-font-specification:'Andika New Basic';letter-spacing:0px;fill:#7776e4;fill-opacity:1;stroke-width:0.2239309px"
         id="path58" />
    </g>
    <g
       transform="matrix(0.25837932,0,0,0.25837932,553.61284,451.61684)"
       aria-label="c"
       style="font-style:normal;font-weight:normal;font-size:48.16131592px;line-height:0.50168037px;font-family:Sans;letter-spacing:0px;word-spacing:0px;fill:#7776e4;fill-opacity:1;stroke:none;stroke-width:0.2239309px;stroke-linecap:butt;stroke-linejoin:miter;stroke-opacity:1"
       id="text861">
      <path
         d="m -1825.2667,-1609.9297 q -0.8937,0.682 -1.7873,1.1758 -0.8701,0.4704 -1.8342,0.7996 -0.9642,0.3057 -2.0695,0.4468 -1.1052,0.1646 -2.4222,0.1646 -2.3751,0 -4.4445,-0.823 -2.0695,-0.8466 -3.6215,-2.4222 -1.5521,-1.5756 -2.4457,-3.8097 -0.8936,-2.234 -0.8936,-5.056 0,-2.6573 0.8465,-5.0089 0.8701,-2.3516 2.4457,-4.1154 1.5991,-1.7637 3.8567,-2.7749 2.2811,-1.0347 5.0795,-1.0347 2.3516,0 4.0448,0.5644 1.7167,0.5409 3.0101,1.4345 l -0.8231,4.2329 q -1.5991,-1.1758 -3.1747,-1.7637 -1.5756,-0.5879 -3.4098,-0.5879 -1.5756,0 -2.9396,0.6114 -1.3404,0.5879 -2.3516,1.7167 -0.9877,1.1288 -1.5521,2.7749 -0.5644,1.6461 -0.5644,3.7156 0,1.9048 0.5174,3.4569 0.5174,1.552 1.4815,2.6808 0.9642,1.1053 2.3281,1.7167 1.364,0.6114 3.0807,0.6114 2.14,0 3.8802,-0.729 1.7402,-0.729 3.2922,-2.0929 z"
         style="font-style:normal;font-variant:normal;font-weight:normal;font-stretch:normal;font-size:48.16131592px;line-height:0.50168037px;font-family:'Andika New Basic';-inkscape-font-specification:'Andika New Basic';letter-spacing:0px;fill:#7776e4;fill-opacity:1;stroke-width:0.2239309px"
         id="path61" />
    </g>
  </g>
</svg>
