<?xml version="1.0" encoding="UTF-8" standalone="no"?>
<!-- Created with Inkscape (http://www.inkscape.org/) -->

<svg
   xmlns:dc="http://purl.org/dc/elements/1.1/"
   xmlns:cc="http://creativecommons.org/ns#"
   xmlns:rdf="http://www.w3.org/1999/02/22-rdf-syntax-ns#"
   xmlns:svg="http://www.w3.org/2000/svg"
   xmlns="http://www.w3.org/2000/svg"
   xmlns:sodipodi="http://sodipodi.sourceforge.net/DTD/sodipodi-0.dtd"
   xmlns:inkscape="http://www.inkscape.org/namespaces/inkscape"
   width="88.508293mm"
   height="107.01616mm"
   viewBox="0 0 88.508293 107.01616"
   version="1.1"
   id="svg2330"
   inkscape:version="0.92.3 (2405546, 2018-03-11)"
   sodipodi:docname="man-machine-mindshare.svg">
  <defs
     id="defs2324" />
  <sodipodi:namedview
     id="base"
     pagecolor="#ffffff"
     bordercolor="#666666"
     borderopacity="1.0"
     inkscape:pageopacity="0.0"
     inkscape:pageshadow="2"
     inkscape:zoom="1.0486328"
     inkscape:cx="223.7312"
     inkscape:cy="151.91675"
     inkscape:document-units="mm"
     inkscape:current-layer="layer1"
     showgrid="false"
     fit-margin-top="0"
     fit-margin-left="0"
     fit-margin-right="0"
     fit-margin-bottom="0"
     inkscape:window-width="1272"
     inkscape:window-height="936"
     inkscape:window-x="0"
     inkscape:window-y="30"
     inkscape:window-maximized="1" />
  <metadata
     id="metadata2327">
    <rdf:RDF>
      <cc:Work
         rdf:about="">
        <dc:format>image/svg+xml</dc:format>
        <dc:type
           rdf:resource="http://purl.org/dc/dcmitype/StillImage" />
        <dc:title></dc:title>
      </cc:Work>
    </rdf:RDF>
  </metadata>
  <g
     inkscape:label="Layer 1"
     inkscape:groupmode="layer"
     id="layer1"
     transform="translate(-46.637786,-82.011812)">
    <g
       id="g6485"
       transform="matrix(0.40651785,0,0,0.40651785,473.56038,201.19869)">
      <path
         style="fill:#fdfdfd;fill-opacity:1;fill-rule:evenodd;stroke:#aa89e9;stroke-width:6.66499996;stroke-linecap:butt;stroke-linejoin:miter;stroke-miterlimit:4;stroke-dasharray:none;stroke-opacity:1"
         d="m -1046.8162,-169.89974 c -0.097,6.15679 0,61.94809 0,61.94809 0.6826,28.6702 24.4038,41.2134 41.2134,40.44545 18.68684,0.17066 41.4694,-17.06559 42.23735,-38.65356 l 10e-6,-16.12699 c 0,0 22.74348,0.76116 12.5432,-17.91887 l -21.24666,-38.90955 c 0,0 -9.62735,-19.58814 -35.3258,-19.45477 -25.6984,0.13337 -39.3245,22.5134 -39.4215,28.6702 z"
         id="path9280"
         inkscape:connector-curvature="0"
         sodipodi:nodetypes="zccccsczz" />
      <path
         style="color:#000000;clip-rule:nonzero;display:inline;overflow:visible;visibility:visible;opacity:1;isolation:auto;mix-blend-mode:normal;color-interpolation:sRGB;color-interpolation-filters:linearRGB;solid-color:#000000;solid-opacity:1;vector-effect:none;fill:#43247b;fill-opacity:1;fill-rule:evenodd;stroke:none;stroke-width:4.56500006;stroke-linecap:butt;stroke-linejoin:miter;stroke-miterlimit:4;stroke-dasharray:none;stroke-dashoffset:0;stroke-opacity:1;marker:none;color-rendering:auto;image-rendering:auto;shape-rendering:auto;text-rendering:auto;enable-background:accumulate"
         d="m -976.67664,-150.57298 a 6.0156212,6.0156212 0 0 1 -6.01562,6.01562 6.0156212,6.0156212 0 0 1 -6.01562,-6.01562 6.0156212,6.0156212 0 0 1 6.01562,-6.01562 6.0156212,6.0156212 0 0 1 6.01562,6.01562 z"
         id="circle9282" />
      <g
         aria-label="a"
         style="font-style:normal;font-weight:normal;font-size:57.8890419px;line-height:0.60301083px;font-family:Sans;letter-spacing:0px;word-spacing:0px;fill:#7776e4;fill-opacity:1;stroke:none;stroke-width:0.26458332px;stroke-linecap:butt;stroke-linejoin:miter;stroke-opacity:1"
         id="text9288">
        <path
           d="m -1007.8659,-179.43519 q -0.3392,-0.0848 -0.7632,-0.16959 -0.424,-0.0848 -1.0175,-0.1696 -0.5654,-0.0848 -1.3568,-0.11306 -0.7632,-0.0565 -1.8091,-0.0565 -2.77,0 -4.6356,1.13065 -1.8373,1.10238 -2.9397,2.96794 -1.1024,1.8373 -1.5829,4.23992 -0.4522,2.40262 -0.4522,4.94658 0,1.63943 0.3109,3.02447 0.3392,1.35678 0.9045,2.37436 0.5653,0.98931 1.3002,1.55464 0.735,0.53705 1.583,0.53705 1.2437,0 2.4874,-0.96105 1.2719,-0.96104 2.4309,-2.45915 1.1589,-1.52637 2.1765,-3.39194 1.0175,-1.89383 1.7525,-3.73113 0.7631,-1.86556 1.1871,-3.505 0.424,-1.63943 0.424,-2.62875 z m 2.12,24.36541 q -0.3109,-0.67839 -0.5653,-1.86556 -0.2262,-1.18718 -0.3958,-2.51569 -0.1413,-1.35677 -0.2261,-2.68528 -0.085,-1.32851 -0.085,-2.26129 v -2.26129 q -0.848,2.20476 -2.0352,4.40951 -1.1589,2.1765 -2.6852,3.929 -1.4981,1.7525 -3.3637,2.85488 -1.8656,1.10237 -4.0703,1.10237 -1.7808,0 -3.3354,-0.79145 -1.5547,-0.79145 -2.7136,-2.34609 -1.1306,-1.55463 -1.7808,-3.84419 -0.6501,-2.31782 -0.6501,-5.31403 0,-3.36367 0.9045,-6.55775 0.9046,-3.22234 2.7701,-5.70976 1.8656,-2.51568 4.7487,-4.01379 2.8832,-1.52637 6.8404,-1.52637 2.7419,0 5.1727,0.36746 2.4309,0.3392 4.5792,0.90452 v 13.14375 q 0,5.3423 0.5087,8.98863 0.5088,3.61807 1.3286,5.99242 z"
           style="font-style:normal;font-variant:normal;font-weight:normal;font-stretch:normal;font-size:57.8890419px;line-height:0.60301083px;font-family:'Andika New Basic';-inkscape-font-specification:'Andika New Basic';letter-spacing:0px;fill:#7776e4;fill-opacity:1;stroke-width:0.26458332px"
           id="path2423" />
      </g>
      <g
         aria-label="b"
         style="font-style:normal;font-weight:normal;font-size:37.9821167px;line-height:0.39564705px;font-family:Sans;letter-spacing:0px;word-spacing:0px;fill:#7776e4;fill-opacity:1;stroke:none;stroke-width:0.26458332px;stroke-linecap:butt;stroke-linejoin:miter;stroke-opacity:1"
         id="text9292">
        <path
           d="m -988.07203,-211.28673 v 14.37311 q 0.6491,-0.85311 1.40949,-1.5764 0.76038,-0.7233 1.63204,-1.26113 0.89021,-0.53783 1.91024,-0.83457 1.02002,-0.31528 2.18842,-0.31528 1.40949,0 2.57789,0.6862 1.16839,0.6862 2.02151,1.92878 0.85311,1.22403 1.31676,2.93026 0.48219,1.70623 0.48219,3.72774 0,2.39243 -0.64911,4.32121 -0.63056,1.92878 -1.79895,3.30118 -1.1684,1.3724 -2.83753,2.11424 -1.65059,0.74183 -3.7092,0.74183 -1.1313,0 -2.18842,-0.16691 -1.05712,-0.14837 -2.0586,-0.38946 -0.98293,-0.25965 -1.91023,-0.53784 -0.9273,-0.29673 -1.81751,-0.57492 v -21.93987 q 0,-1.18694 -0.0371,-2.37388 -0.0185,-1.20549 -0.0742,-2.28115 -0.0556,-1.09421 -0.16692,-1.87314 z m 0,26.24252 q 0.6862,0.27819 1.24257,0.4822 0.57493,0.18546 1.11276,0.31528 0.53783,0.11128 1.05712,0.16691 0.53783,0.0556 1.1313,0.0556 1.22404,0 2.26261,-0.50074 1.03857,-0.50074 1.78041,-1.40949 0.76039,-0.90875 1.18694,-2.18843 0.42656,-1.29821 0.42656,-2.85607 0,-1.53932 -0.27819,-2.7819 -0.27819,-1.24257 -0.81602,-2.09569 -0.51929,-0.87166 -1.29822,-1.33531 -0.77893,-0.46365 -1.78041,-0.46365 -0.87166,0 -1.74332,0.38947 -0.87166,0.37092 -1.66913,1.05712 -0.77893,0.6862 -1.46514,1.65059 -0.6862,0.94584 -1.14984,2.09569 z"
           style="font-style:normal;font-variant:normal;font-weight:normal;font-stretch:normal;font-size:37.9821167px;line-height:0.39564705px;font-family:'Andika New Basic';-inkscape-font-specification:'Andika New Basic';letter-spacing:0px;fill:#7776e4;fill-opacity:1;stroke-width:0.26458332px"
           id="path2426" />
      </g>
      <g
         aria-label="c"
         style="font-style:normal;font-weight:normal;font-size:56.90452194px;line-height:0.59275544px;font-family:Sans;letter-spacing:0px;word-spacing:0px;fill:#7776e4;fill-opacity:1;stroke:none;stroke-width:0.26458332px;stroke-linecap:butt;stroke-linejoin:miter;stroke-opacity:1"
         id="text9296">
        <path
           d="m -959.77762,-221.50214 q -1.05585,0.80578 -2.11169,1.38927 -1.02806,0.55571 -2.16726,0.9447 -1.13921,0.36121 -2.44512,0.52793 -1.30591,0.19449 -2.8619,0.19449 -2.80632,0 -5.25144,-0.97248 -2.44512,-1.00028 -4.27895,-2.8619 -1.83384,-1.86162 -2.88969,-4.50124 -1.05584,-2.63961 -1.05584,-5.97386 0,-3.13975 1.00027,-5.91829 1.02806,-2.77855 2.88969,-4.86245 1.8894,-2.08391 4.5568,-3.27868 2.69519,-1.22256 6.00165,-1.22256 2.77854,0 4.77909,0.66685 2.02834,0.63907 3.55654,1.69491 l -0.97249,5.00138 q -1.88941,-1.38928 -3.75103,-2.08391 -1.86163,-0.69464 -4.02889,-0.69464 -1.86162,0 -3.47318,0.72243 -1.58376,0.69463 -2.77854,2.02833 -1.16698,1.3337 -1.83383,3.27868 -0.66685,1.94498 -0.66685,4.39009 0,2.25062 0.61128,4.08446 0.61127,1.83384 1.75048,3.16754 1.1392,1.30591 2.75075,2.02833 1.61156,0.72242 3.63989,0.72242 2.52847,0 4.58459,-0.86135 2.05612,-0.86134 3.88996,-2.4729 z"
           style="font-style:normal;font-variant:normal;font-weight:normal;font-stretch:normal;font-size:56.90452194px;line-height:0.59275544px;font-family:'Andika New Basic';-inkscape-font-specification:'Andika New Basic';letter-spacing:0px;fill:#7776e4;fill-opacity:1;stroke-width:0.26458332px"
           id="path2429" />
      </g>
      <g
         transform="translate(15.423302,20.209843)"
         id="g30852">
        <path
           style="color:#000000;clip-rule:nonzero;display:inline;overflow:visible;visibility:visible;opacity:1;isolation:auto;mix-blend-mode:normal;color-interpolation:sRGB;color-interpolation-filters:linearRGB;solid-color:#000000;solid-opacity:1;vector-effect:none;fill:#43247b;fill-opacity:1;fill-rule:evenodd;stroke:none;stroke-width:4.56500006;stroke-linecap:butt;stroke-linejoin:miter;stroke-miterlimit:4;stroke-dasharray:none;stroke-dashoffset:0;stroke-opacity:1;marker:none;color-rendering:auto;image-rendering:auto;shape-rendering:auto;text-rendering:auto;enable-background:accumulate"
           d="m -927.26538,-56.845985 a 6.0156212,6.0156212 0 0 1 -6.01563,6.015621 6.0156212,6.0156212 0 0 1 -6.01562,-6.015621 6.0156212,6.0156212 0 0 1 6.01562,-6.015622 6.0156212,6.0156212 0 0 1 6.01563,6.015622 z"
           id="circle30835" />
        <path
           style="color:#000000;clip-rule:nonzero;display:inline;overflow:visible;visibility:visible;opacity:1;isolation:auto;mix-blend-mode:normal;color-interpolation:sRGB;color-interpolation-filters:linearRGB;solid-color:#000000;solid-opacity:1;vector-effect:none;fill:#43247b;fill-opacity:1;fill-rule:evenodd;stroke:none;stroke-width:4.56500006;stroke-linecap:butt;stroke-linejoin:miter;stroke-miterlimit:4;stroke-dasharray:none;stroke-dashoffset:0;stroke-opacity:1;marker:none;color-rendering:auto;image-rendering:auto;shape-rendering:auto;text-rendering:auto;enable-background:accumulate"
           d="m -941.93195,-56.845985 a 6.0156212,6.0156212 0 0 1 -6.01562,6.015621 6.0156212,6.0156212 0 0 1 -6.01562,-6.015621 6.0156212,6.0156212 0 0 1 6.01562,-6.015622 6.0156212,6.0156212 0 0 1 6.01562,6.015622 z"
           id="circle30837" />
        <path
           style="color:#000000;clip-rule:nonzero;display:inline;overflow:visible;visibility:visible;opacity:1;isolation:auto;mix-blend-mode:normal;color-interpolation:sRGB;color-interpolation-filters:linearRGB;solid-color:#000000;solid-opacity:1;vector-effect:none;fill:#43247b;fill-opacity:1;fill-rule:evenodd;stroke:none;stroke-width:4.56500006;stroke-linecap:butt;stroke-linejoin:miter;stroke-miterlimit:4;stroke-dasharray:none;stroke-dashoffset:0;stroke-opacity:1;marker:none;color-rendering:auto;image-rendering:auto;shape-rendering:auto;text-rendering:auto;enable-background:accumulate"
           d="m -956.59851,-56.845985 a 6.0156212,6.0156212 0 0 1 -6.01563,6.015621 6.0156212,6.0156212 0 0 1 -6.01562,-6.015621 6.0156212,6.0156212 0 0 1 6.01562,-6.015622 6.0156212,6.0156212 0 0 1 6.01563,6.015622 z"
           id="circle30839" />
        <path
           style="color:#000000;clip-rule:nonzero;display:inline;overflow:visible;visibility:visible;opacity:1;isolation:auto;mix-blend-mode:normal;color-interpolation:sRGB;color-interpolation-filters:linearRGB;solid-color:#000000;solid-opacity:1;vector-effect:none;fill:#43247b;fill-opacity:1;fill-rule:evenodd;stroke:none;stroke-width:4.56500006;stroke-linecap:butt;stroke-linejoin:miter;stroke-miterlimit:4;stroke-dasharray:none;stroke-dashoffset:0;stroke-opacity:1;marker:none;color-rendering:auto;image-rendering:auto;shape-rendering:auto;text-rendering:auto;enable-background:accumulate"
           d="m -912.22272,-56.845985 a 6.0156212,6.0156212 0 0 1 -6.01562,6.015621 6.0156212,6.0156212 0 0 1 -6.01562,-6.015621 6.0156212,6.0156212 0 0 1 6.01562,-6.015622 6.0156212,6.0156212 0 0 1 6.01562,6.015622 z"
           id="circle9337" />
        <path
           sodipodi:nodetypes="ccc"
           id="path3308"
           d="m -887.22452,-105.84698 v -1.33266 z"
           style="fill:#43247b;fill-opacity:1;fill-rule:nonzero;stroke:none;stroke-width:0.13229167;stroke-linecap:round;stroke-linejoin:round;stroke-miterlimit:4;stroke-dasharray:none;stroke-dashoffset:4;stroke-opacity:1"
           inkscape:connector-curvature="0" />
        <path
           sodipodi:nodetypes="ccc"
           id="path3316"
           d="m -906.46285,-84.337786 v -1.332652 z"
           style="fill:#43247b;fill-opacity:1;fill-rule:nonzero;stroke:none;stroke-width:0.13229167;stroke-linecap:round;stroke-linejoin:round;stroke-miterlimit:4;stroke-dasharray:none;stroke-dashoffset:4;stroke-opacity:1"
           inkscape:connector-curvature="0" />
        <path
           style="fill:#43247b;fill-opacity:1;fill-rule:nonzero;stroke:none;stroke-width:0.13229167;stroke-linecap:round;stroke-linejoin:round;stroke-miterlimit:4;stroke-dasharray:none;stroke-dashoffset:4;stroke-opacity:1"
           d="m -875.93325,-94.555703 v -1.332652 z"
           id="path3254"
           sodipodi:nodetypes="ccc"
           inkscape:connector-curvature="0" />
        <path
           style="fill:#43247b;fill-opacity:1;fill-rule:nonzero;stroke:none;stroke-width:0.13229167;stroke-linecap:round;stroke-linejoin:round;stroke-miterlimit:4;stroke-dasharray:none;stroke-dashoffset:4;stroke-opacity:1"
           d="m -895.17158,-73.046506 v -1.332652 z"
           id="path3262"
           sodipodi:nodetypes="ccc"
           inkscape:connector-curvature="0" />
        <path
           sodipodi:nodetypes="ccc"
           id="path6445"
           d="m -864.64198,-83.264433 v -1.332652 z"
           style="fill:#43247b;fill-opacity:1;fill-rule:nonzero;stroke:none;stroke-width:0.13229167;stroke-linecap:round;stroke-linejoin:round;stroke-miterlimit:4;stroke-dasharray:none;stroke-dashoffset:4;stroke-opacity:1"
           inkscape:connector-curvature="0" />
        <path
           sodipodi:nodetypes="ccc"
           id="path10504"
           d="m -883.88031,-61.755236 v -1.332652 z"
           style="fill:#43247b;fill-opacity:1;fill-rule:nonzero;stroke:none;stroke-width:0.13229167;stroke-linecap:round;stroke-linejoin:round;stroke-miterlimit:4;stroke-dasharray:none;stroke-dashoffset:4;stroke-opacity:1"
           inkscape:connector-curvature="0" />
        <path
           style="opacity:1;vector-effect:none;fill:none;fill-opacity:1;fill-rule:evenodd;stroke:#aa89e9;stroke-width:6.66499996;stroke-linecap:butt;stroke-linejoin:miter;stroke-miterlimit:4;stroke-dasharray:none;stroke-dashoffset:0;stroke-opacity:1"
           d="m -990.81417,-53.481232 92.00798,-0.531838 47.86542,-107.96311"
           id="path9304"
           inkscape:connector-curvature="0"
           sodipodi:nodetypes="ccc" />
      </g>
      <g
         aria-label="a"
         style="font-style:normal;font-weight:normal;font-size:26.18450546px;line-height:0.27275527px;font-family:Sans;letter-spacing:0px;word-spacing:0px;fill:#7776e4;fill-opacity:1;stroke:none;stroke-width:0.11967694px;stroke-linecap:butt;stroke-linejoin:miter;stroke-opacity:1"
         id="text9343">
        <path
           d="m -860.74645,-140.7074 q -0.15342,-0.0384 -0.3452,-0.0767 -0.19178,-0.0384 -0.46028,-0.0767 -0.25571,-0.0384 -0.6137,-0.0511 -0.3452,-0.0256 -0.81826,-0.0256 -1.25297,0 -2.09681,0.51142 -0.83105,0.49863 -1.32968,1.34246 -0.49863,0.83105 -0.71598,1.91781 -0.20457,1.08676 -0.20457,2.23745 0,0.74155 0.14064,1.36804 0.15342,0.6137 0.40913,1.07397 0.25571,0.44749 0.58813,0.7032 0.33242,0.24292 0.71598,0.24292 0.56256,0 1.12512,-0.4347 0.57534,-0.43471 1.09954,-1.11233 0.52421,-0.69042 0.98448,-1.53425 0.46027,-0.85662 0.7927,-1.68767 0.3452,-0.84384 0.53698,-1.58539 0.19178,-0.74156 0.19178,-1.18905 z m 0.95891,11.02101 q -0.14064,-0.30685 -0.25571,-0.84383 -0.10228,-0.53699 -0.179,-1.1379 -0.0639,-0.6137 -0.10228,-1.21462 -0.0384,-0.60091 -0.0384,-1.02283 v -1.02283 q -0.38357,0.99726 -0.92055,1.99452 -0.52421,0.98448 -1.21462,1.77717 -0.67762,0.7927 -1.52146,1.29133 -0.84384,0.49863 -1.8411,0.49863 -0.80548,0 -1.50868,-0.35799 -0.70319,-0.35799 -1.22739,-1.06119 -0.51142,-0.7032 -0.80548,-1.73882 -0.29407,-1.0484 -0.29407,-2.40365 0,-1.52146 0.40913,-2.96621 0.40914,-1.45754 1.25297,-2.58266 0.84384,-1.1379 2.14795,-1.81552 1.30411,-0.69042 3.09407,-0.69042 1.24018,0 2.33973,0.16621 1.09954,0.15343 2.07123,0.40914 v 5.94521 q 0,2.41644 0.23014,4.06576 0.23014,1.63653 0.60091,2.7105 z"
           style="font-style:normal;font-variant:normal;font-weight:normal;font-stretch:normal;font-size:26.18450546px;line-height:0.27275527px;font-family:'Andika New Basic';-inkscape-font-specification:'Andika New Basic';letter-spacing:0px;fill:#7776e4;fill-opacity:1;stroke-width:0.11967694px"
           id="path2436" />
      </g>
      <g
         aria-label="b"
         style="font-style:normal;font-weight:normal;font-size:27.44143105px;line-height:0.28584823px;font-family:Sans;letter-spacing:0px;word-spacing:0px;fill:#7776e4;fill-opacity:1;stroke:none;stroke-width:0.19115694px;stroke-linecap:butt;stroke-linejoin:miter;stroke-opacity:1"
         id="text9347">
        <path
           d="m -855.61008,-174.58991 v 10.38433 q 0.46897,-0.61636 1.01833,-1.13892 0.54936,-0.52257 1.17912,-0.91115 0.64316,-0.38857 1.38012,-0.60296 0.73695,-0.22778 1.58109,-0.22778 1.01834,0 1.86248,0.49577 0.84415,0.49576 1.46051,1.39351 0.61636,0.88434 0.95134,2.11706 0.34838,1.23272 0.34838,2.69323 0,1.72848 -0.46897,3.12199 -0.45558,1.39351 -1.29972,2.38505 -0.84415,0.99154 -2.05007,1.5275 -1.19252,0.53597 -2.67983,0.53597 -0.81734,0 -1.58109,-0.12059 -0.76375,-0.1072 -1.48731,-0.28139 -0.71015,-0.18758 -1.38011,-0.38857 -0.66996,-0.21439 -1.31311,-0.41537 v -15.85118 q 0,-0.85755 -0.0268,-1.71509 -0.0134,-0.87095 -0.0536,-1.6481 -0.0402,-0.79055 -0.12059,-1.35331 z m 0,18.95978 q 0.49576,0.20099 0.89774,0.34838 0.41537,0.13399 0.80395,0.22778 0.38857,0.0804 0.76375,0.12059 0.38857,0.0402 0.81734,0.0402 0.88435,0 1.6347,-0.36178 0.75035,-0.36177 1.28632,-1.01833 0.54936,-0.65656 0.85754,-1.5811 0.30818,-0.93794 0.30818,-2.06346 0,-1.11213 -0.20099,-2.00988 -0.20098,-0.89774 -0.58956,-1.5141 -0.37517,-0.62976 -0.93794,-0.96474 -0.56276,-0.33497 -1.28632,-0.33497 -0.62975,0 -1.25951,0.28138 -0.62976,0.26798 -1.20593,0.76375 -0.56276,0.49577 -1.05853,1.19252 -0.49577,0.68336 -0.83074,1.5141 z"
           style="font-style:normal;font-variant:normal;font-weight:normal;font-stretch:normal;font-size:27.44143105px;line-height:0.28584823px;font-family:'Andika New Basic';-inkscape-font-specification:'Andika New Basic';letter-spacing:0px;fill:#7776e4;fill-opacity:1;stroke-width:0.19115694px"
           id="path2439" />
      </g>
      <g
         aria-label="c"
         style="font-style:normal;font-weight:normal;font-size:56.90452194px;line-height:0.59275544px;font-family:Sans;letter-spacing:0px;word-spacing:0px;fill:#7776e4;fill-opacity:1;stroke:none;stroke-width:0.26458332px;stroke-linecap:butt;stroke-linejoin:miter;stroke-opacity:1"
         id="text9351">
        <path
           d="m -850.75083,-239.58463 q -1.05584,0.80578 -2.11169,1.38927 -1.02806,0.55571 -2.16726,0.9447 -1.1392,0.36122 -2.44512,0.52793 -1.30591,0.1945 -2.86189,0.1945 -2.80633,0 -5.25145,-0.97249 -2.44511,-1.00028 -4.27895,-2.8619 -1.83384,-1.86162 -2.88968,-4.50124 -1.05585,-2.63961 -1.05585,-5.97386 0,-3.13975 1.00028,-5.91829 1.02806,-2.77854 2.88968,-4.86245 1.88941,-2.08391 4.55681,-3.27868 2.69518,-1.22256 6.00165,-1.22256 2.77854,0 4.77909,0.66685 2.02833,0.63907 3.55653,1.69491 l -0.97249,5.00138 q -1.88941,-1.38927 -3.75103,-2.08391 -1.86162,-0.69463 -4.02888,-0.69463 -1.86163,0 -3.47318,0.72242 -1.58377,0.69463 -2.77854,2.02833 -1.16699,1.3337 -1.83384,3.27868 -0.66685,1.94498 -0.66685,4.39009 0,2.25062 0.61128,4.08446 0.61128,1.83384 1.75048,3.16754 1.1392,1.30591 2.75076,2.02833 1.61155,0.72242 3.63989,0.72242 2.52847,0 4.58459,-0.86135 2.05612,-0.86134 3.88996,-2.4729 z"
           style="font-style:normal;font-variant:normal;font-weight:normal;font-stretch:normal;font-size:56.90452194px;line-height:0.59275544px;font-family:'Andika New Basic';-inkscape-font-specification:'Andika New Basic';letter-spacing:0px;fill:#7776e4;fill-opacity:1;stroke-width:0.26458332px"
           id="path2442" />
      </g>
      <g
         aria-label="c"
         style="font-style:normal;font-weight:normal;font-size:40.54088974px;line-height:0.42230093px;font-family:Sans;letter-spacing:0px;word-spacing:0px;fill:#7776e4;fill-opacity:1;stroke:none;stroke-width:0.18849896px;stroke-linecap:butt;stroke-linejoin:miter;stroke-opacity:1"
         id="text9355">
        <path
           d="m -850.46871,-189.24482 q -0.75223,0.57407 -1.50445,0.98977 -0.73243,0.39591 -1.54404,0.67304 -0.81161,0.25734 -1.74199,0.37612 -0.93038,0.13856 -2.03892,0.13856 -1.99933,0 -3.74132,-0.69283 -1.742,-0.71264 -3.04849,-2.03893 -1.30649,-1.32628 -2.05872,-3.20684 -0.75222,-1.88056 -0.75222,-4.256 0,-2.23688 0.71263,-4.21642 0.73243,-1.97953 2.05872,-3.46418 1.34608,-1.48465 3.24644,-2.33585 1.92015,-0.871 4.2758,-0.871 1.97953,0 3.4048,0.47509 1.44506,0.45529 2.5338,1.20751 l -0.69284,3.56317 q -1.34608,-0.98977 -2.67237,-1.48465 -1.32629,-0.49489 -2.87033,-0.49489 -1.32628,0 -2.47441,0.51468 -1.12834,0.49489 -1.97954,1.44506 -0.83141,0.95018 -1.30649,2.33586 -0.47509,1.38567 -0.47509,3.12766 0,1.60343 0.4355,2.90992 0.43549,1.30649 1.2471,2.25667 0.81161,0.93038 1.95974,1.44506 1.14813,0.51468 2.59319,0.51468 1.80138,0 3.26624,-0.61366 1.46486,-0.61365 2.77135,-1.76178 z"
           style="font-style:normal;font-variant:normal;font-weight:normal;font-stretch:normal;font-size:40.54088974px;line-height:0.42230093px;font-family:'Andika New Basic';-inkscape-font-specification:'Andika New Basic';letter-spacing:0px;fill:#7776e4;fill-opacity:1;stroke-width:0.18849896px"
           id="path2445" />
      </g>
      <g
         aria-label="a"
         style="font-style:normal;font-weight:normal;font-size:38.45722961px;line-height:0.40059614px;font-family:Sans;letter-spacing:0px;word-spacing:0px;fill:#7776e4;fill-opacity:1;stroke:none;stroke-width:0.17576973px;stroke-linecap:butt;stroke-linejoin:miter;stroke-opacity:1"
         id="text9359">
        <path
           d="m -879.42074,-221.54377 q -0.22534,-0.0563 -0.50701,-0.11266 -0.28167,-0.0563 -0.676,-0.11267 -0.37556,-0.0563 -0.90134,-0.0751 -0.50701,-0.0376 -1.20179,-0.0376 -1.84024,0 -3.07959,0.75112 -1.22056,0.73234 -1.9529,1.97168 -0.73234,1.22057 -1.05157,2.81669 -0.30044,1.59613 -0.30044,3.28615 0,1.08912 0.20655,2.00924 0.22534,0.90134 0.6009,1.57734 0.37556,0.65723 0.86378,1.03279 0.48823,0.35678 1.05157,0.35678 0.82623,0 1.65246,-0.63845 0.845,-0.63845 1.6149,-1.63368 0.7699,-1.01401 1.4459,-2.25335 0.67601,-1.25813 1.16423,-2.47869 0.50701,-1.23935 0.78868,-2.32847 0.28167,-1.08912 0.28167,-1.74635 z m 1.40834,16.18659 q -0.20655,-0.45067 -0.37556,-1.23934 -0.15022,-0.78868 -0.26289,-1.67124 -0.0939,-0.90134 -0.15022,-1.7839 -0.0563,-0.88257 -0.0563,-1.50224 v -1.50223 q -0.56334,1.46467 -1.35202,2.92935 -0.76989,1.44591 -1.7839,2.61014 -0.99523,1.16423 -2.23458,1.89657 -1.23934,0.73234 -2.70402,0.73234 -1.18301,0 -2.2158,-0.52578 -1.03278,-0.52578 -1.80268,-1.55857 -0.75112,-1.03279 -1.18301,-2.5538 -0.43189,-1.53979 -0.43189,-3.53025 0,-2.23458 0.60089,-4.35649 0.6009,-2.14068 1.84024,-3.79314 1.23934,-1.67124 3.15469,-2.66647 1.91535,-1.01401 4.54427,-1.01401 1.82146,0 3.43636,0.24411 1.6149,0.22534 3.04203,0.6009 v 8.73174 q 0,3.54903 0.338,5.97139 0.338,2.40357 0.88256,3.98092 z"
           style="font-style:normal;font-variant:normal;font-weight:normal;font-stretch:normal;font-size:38.45722961px;line-height:0.40059614px;font-family:'Andika New Basic';-inkscape-font-specification:'Andika New Basic';letter-spacing:0px;fill:#7776e4;fill-opacity:1;stroke-width:0.17576973px"
           id="path2448" />
      </g>
      <g
         aria-label="c"
         style="font-style:normal;font-weight:normal;font-size:40.54088974px;line-height:0.42230093px;font-family:Sans;letter-spacing:0px;word-spacing:0px;fill:#7776e4;fill-opacity:1;stroke:none;stroke-width:0.18849896px;stroke-linecap:butt;stroke-linejoin:miter;stroke-opacity:1"
         id="text9363">
        <path
           d="m -891.95211,-233.91922 q -0.75223,0.57406 -1.50445,0.98976 -0.73243,0.39591 -1.54404,0.67305 -0.81161,0.25734 -1.74199,0.37611 -0.93038,0.13857 -2.03892,0.13857 -1.99933,0 -3.74132,-0.69284 -1.74199,-0.71263 -3.04849,-2.03892 -1.30649,-1.32629 -2.05871,-3.20685 -0.75223,-1.88056 -0.75223,-4.256 0,-2.23688 0.71263,-4.21641 0.73243,-1.97954 2.05872,-3.46419 1.34609,-1.48465 3.24644,-2.33585 1.92015,-0.871 4.2758,-0.871 1.97953,0 3.4048,0.47509 1.44506,0.45529 2.5338,1.20752 l -0.69283,3.56316 q -1.34609,-0.98977 -2.67238,-1.48465 -1.32629,-0.49488 -2.87032,-0.49488 -1.32629,0 -2.47442,0.51467 -1.12834,0.49489 -1.97954,1.44507 -0.8314,0.95017 -1.30649,2.33585 -0.47509,1.38567 -0.47509,3.12766 0,1.60343 0.4355,2.90992 0.43549,1.30649 1.2471,2.25667 0.81161,0.93038 1.95974,1.44506 1.14814,0.51468 2.5932,0.51468 1.80137,0 3.26623,-0.61365 1.46486,-0.61366 2.77135,-1.76179 z"
           style="font-style:normal;font-variant:normal;font-weight:normal;font-stretch:normal;font-size:40.54088974px;line-height:0.42230093px;font-family:'Andika New Basic';-inkscape-font-specification:'Andika New Basic';letter-spacing:0px;fill:#7776e4;fill-opacity:1;stroke-width:0.18849896px"
           id="path2451" />
      </g>
      <g
         aria-label="a"
         style="font-style:normal;font-weight:normal;font-size:38.45722961px;line-height:0.40059614px;font-family:Sans;letter-spacing:0px;word-spacing:0px;fill:#7776e4;fill-opacity:1;stroke:none;stroke-width:0.17576973px;stroke-linecap:butt;stroke-linejoin:miter;stroke-opacity:1"
         id="text9367">
        <path
           d="m -931.00906,-281.64145 q -0.22534,-0.0563 -0.507,-0.11267 -0.28167,-0.0563 -0.67601,-0.11267 -0.37556,-0.0563 -0.90134,-0.0751 -0.50701,-0.0376 -1.20179,-0.0376 -1.84024,0 -3.07958,0.75112 -1.22057,0.73234 -1.95291,1.97169 -0.73234,1.22056 -1.05156,2.81669 -0.30045,1.59612 -0.30045,3.28614 0,1.08912 0.20656,2.00924 0.22533,0.90134 0.60089,1.57735 0.37556,0.65722 0.86379,1.03278 0.48822,0.35678 1.05156,0.35678 0.82623,0 1.65246,-0.63845 0.84501,-0.63845 1.6149,-1.63368 0.7699,-1.01401 1.4459,-2.25335 0.67601,-1.25812 1.16424,-2.47869 0.507,-1.23934 0.78867,-2.32846 0.28167,-1.08913 0.28167,-1.74635 z m 1.40835,16.18659 q -0.20656,-0.45068 -0.37556,-1.23935 -0.15023,-0.78867 -0.26289,-1.67124 -0.0939,-0.90134 -0.15023,-1.7839 -0.0563,-0.88256 -0.0563,-1.50224 v -1.50223 q -0.56334,1.46468 -1.35201,2.92936 -0.7699,1.4459 -1.78391,2.61013 -0.99523,1.16423 -2.23457,1.89657 -1.23935,0.73234 -2.70403,0.73234 -1.18301,0 -2.2158,-0.52578 -1.03278,-0.52578 -1.80268,-1.55857 -0.75112,-1.03278 -1.18301,-2.5538 -0.43189,-1.53979 -0.43189,-3.53025 0,-2.23458 0.60089,-4.35648 0.6009,-2.14069 1.84024,-3.79315 1.23935,-1.67124 3.1547,-2.66647 1.91535,-1.01401 4.54426,-1.01401 1.82146,0 3.43636,0.24412 1.61491,0.22533 3.04203,0.60089 v 8.73175 q 0,3.54903 0.338,5.97138 0.33801,2.40358 0.88257,3.98093 z"
           style="font-style:normal;font-variant:normal;font-weight:normal;font-stretch:normal;font-size:38.45722961px;line-height:0.40059614px;font-family:'Andika New Basic';-inkscape-font-specification:'Andika New Basic';letter-spacing:0px;fill:#7776e4;fill-opacity:1;stroke-width:0.17576973px"
           id="path2454" />
      </g>
      <g
         aria-label="b"
         style="font-style:normal;font-weight:normal;font-size:27.44143105px;line-height:0.28584823px;font-family:Sans;letter-spacing:0px;word-spacing:0px;fill:#7776e4;fill-opacity:1;stroke:none;stroke-width:0.19115694px;stroke-linecap:butt;stroke-linejoin:miter;stroke-opacity:1"
         id="text9371">
        <path
           d="m -913.58048,-293.18978 v 10.38433 q 0.46897,-0.61636 1.01833,-1.13892 0.54937,-0.52257 1.17913,-0.91114 0.64315,-0.38858 1.38011,-0.60297 0.73695,-0.22778 1.5811,-0.22778 1.01833,0 1.86248,0.49577 0.84414,0.49576 1.4605,1.39351 0.61636,0.88434 0.95134,2.11706 0.34838,1.23272 0.34838,2.69323 0,1.72849 -0.46897,3.122 -0.45557,1.39351 -1.29972,2.38504 -0.84414,0.99154 -2.05007,1.5275 -1.19252,0.53597 -2.67982,0.53597 -0.81735,0 -1.5811,-0.12059 -0.76375,-0.1072 -1.48731,-0.28139 -0.71015,-0.18758 -1.38011,-0.38857 -0.66995,-0.21439 -1.31311,-0.41537 v -15.85118 q 0,-0.85755 -0.0268,-1.71509 -0.0134,-0.87095 -0.0536,-1.64809 -0.0402,-0.79055 -0.12059,-1.35332 z m 0,18.95978 q 0.49577,0.20099 0.89774,0.34838 0.41537,0.13399 0.80395,0.22778 0.38857,0.0804 0.76375,0.1206 0.38857,0.0402 0.81735,0.0402 0.88434,0 1.63469,-0.36177 0.75035,-0.36178 1.28632,-1.01834 0.54936,-0.65656 0.85754,-1.5811 0.30818,-0.93794 0.30818,-2.06346 0,-1.11213 -0.20098,-2.00987 -0.20099,-0.89775 -0.58957,-1.51411 -0.37517,-0.62976 -0.93794,-0.96473 -0.56276,-0.33498 -1.28631,-0.33498 -0.62976,0 -1.25952,0.28138 -0.62976,0.26798 -1.20592,0.76375 -0.56277,0.49577 -1.05854,1.19252 -0.49576,0.68336 -0.83074,1.51411 z"
           style="font-style:normal;font-variant:normal;font-weight:normal;font-stretch:normal;font-size:27.44143105px;line-height:0.28584823px;font-family:'Andika New Basic';-inkscape-font-specification:'Andika New Basic';letter-spacing:0px;fill:#7776e4;fill-opacity:1;stroke-width:0.19115694px"
           id="path2457" />
      </g>
      <g
         aria-label="b"
         style="font-style:normal;font-weight:normal;font-size:27.44143105px;line-height:0.28584823px;font-family:Sans;letter-spacing:0px;word-spacing:0px;fill:#7776e4;fill-opacity:1;stroke:none;stroke-width:0.19115694px;stroke-linecap:butt;stroke-linejoin:miter;stroke-opacity:1"
         id="text9375">
        <path
           d="m -946.02256,-262.87502 v 10.38433 q 0.46897,-0.61636 1.01833,-1.13893 0.54937,-0.52256 1.17913,-0.91114 0.64316,-0.38857 1.38011,-0.60296 0.73695,-0.22778 1.5811,-0.22778 1.01833,0 1.86248,0.49576 0.84414,0.49577 1.4605,1.39352 0.61636,0.88434 0.95134,2.11706 0.34838,1.23272 0.34838,2.69323 0,1.72848 -0.46897,3.12199 -0.45557,1.39351 -1.29972,2.38505 -0.84414,0.99154 -2.05006,1.5275 -1.19253,0.53597 -2.67983,0.53597 -0.81735,0 -1.5811,-0.1206 -0.76375,-0.10719 -1.4873,-0.28138 -0.71016,-0.18758 -1.38011,-0.38857 -0.66996,-0.21439 -1.31312,-0.41538 v -15.85117 q 0,-0.85755 -0.0268,-1.71509 -0.0134,-0.87095 -0.0536,-1.6481 -0.0402,-0.79055 -0.1206,-1.35331 z m 0,18.95978 q 0.49577,0.20099 0.89774,0.34838 0.41538,0.13399 0.80395,0.22778 0.38858,0.0804 0.76375,0.12059 0.38858,0.0402 0.81735,0.0402 0.88434,0 1.63469,-0.36178 0.75035,-0.36177 1.28632,-1.01833 0.54936,-0.65656 0.85754,-1.5811 0.30819,-0.93794 0.30819,-2.06347 0,-1.11212 -0.20099,-2.00987 -0.20099,-0.89774 -0.58956,-1.5141 -0.37518,-0.62976 -0.93794,-0.96474 -0.56277,-0.33497 -1.28632,-0.33497 -0.62976,0 -1.25952,0.28138 -0.62976,0.26798 -1.20592,0.76375 -0.56277,0.49577 -1.05853,1.19252 -0.49577,0.68336 -0.83075,1.5141 z"
           style="font-style:normal;font-variant:normal;font-weight:normal;font-stretch:normal;font-size:27.44143105px;line-height:0.28584823px;font-family:'Andika New Basic';-inkscape-font-specification:'Andika New Basic';letter-spacing:0px;fill:#7776e4;fill-opacity:1;stroke-width:0.19115694px"
           id="path2460" />
      </g>
      <g
         aria-label="a"
         style="font-style:normal;font-weight:normal;font-size:26.18450546px;line-height:0.27275527px;font-family:Sans;letter-spacing:0px;word-spacing:0px;fill:#7776e4;fill-opacity:1;stroke:none;stroke-width:0.11967694px;stroke-linecap:butt;stroke-linejoin:miter;stroke-opacity:1"
         id="text9379">
        <path
           d="m -953.2863,-285.89919 q -0.15343,-0.0384 -0.34521,-0.0767 -0.19178,-0.0384 -0.46027,-0.0767 -0.25571,-0.0384 -0.6137,-0.0511 -0.34521,-0.0256 -0.81827,-0.0256 -1.25297,0 -2.0968,0.51142 -0.83106,0.49863 -1.32969,1.34246 -0.49863,0.83106 -0.71598,1.91782 -0.20457,1.08675 -0.20457,2.23744 0,0.74155 0.14064,1.36804 0.15343,0.6137 0.40914,1.07397 0.25571,0.44749 0.58813,0.7032 0.33242,0.24292 0.71598,0.24292 0.56256,0 1.12511,-0.4347 0.57535,-0.4347 1.09955,-1.11233 0.5242,-0.69041 0.98447,-1.53425 0.46028,-0.85662 0.7927,-1.68767 0.34521,-0.84384 0.53699,-1.58539 0.19178,-0.74156 0.19178,-1.18905 z m 0.9589,11.02102 q -0.14064,-0.30685 -0.25571,-0.84384 -0.10228,-0.53699 -0.17899,-1.1379 -0.0639,-0.6137 -0.10228,-1.21461 -0.0384,-0.60092 -0.0384,-1.02284 v -1.02283 q -0.38356,0.99726 -0.92055,1.99452 -0.5242,0.98448 -1.21461,1.77717 -0.67763,0.7927 -1.52147,1.29133 -0.84383,0.49863 -1.84109,0.49863 -0.80548,0 -1.50868,-0.35799 -0.7032,-0.35799 -1.2274,-1.06119 -0.51142,-0.7032 -0.80548,-1.73881 -0.29406,-1.04841 -0.29406,-2.40366 0,-1.52146 0.40913,-2.96621 0.40913,-1.45754 1.25297,-2.58265 0.84383,-1.1379 2.14795,-1.81553 1.30411,-0.69041 3.09406,-0.69041 1.24019,0 2.33973,0.16621 1.09955,0.15342 2.07124,0.40913 v 5.94521 q 0,2.41644 0.23013,4.06576 0.23014,1.63653 0.60092,2.71051 z"
           style="font-style:normal;font-variant:normal;font-weight:normal;font-stretch:normal;font-size:26.18450546px;line-height:0.27275527px;font-family:'Andika New Basic';-inkscape-font-specification:'Andika New Basic';letter-spacing:0px;fill:#7776e4;fill-opacity:1;stroke-width:0.11967694px"
           id="path2463" />
      </g>
      <g
         aria-label="b"
         style="font-style:normal;font-weight:normal;font-size:34.14422607px;line-height:0.35566902px;font-family:Sans;letter-spacing:0px;word-spacing:0px;fill:#7776e4;fill-opacity:1;stroke:none;stroke-width:0.23784859px;stroke-linecap:butt;stroke-linejoin:miter;stroke-opacity:1"
         id="text9383">
        <path
           d="m -890.58876,-285.74402 v 12.92078 q 0.58352,-0.76691 1.26707,-1.41711 0.68355,-0.65021 1.46714,-1.1337 0.80025,-0.48349 1.71721,-0.75024 0.91696,-0.28342 1.96729,-0.28342 1.26708,0 2.31741,0.61686 1.05034,0.61686 1.81725,1.73389 0.76691,1.10035 1.18371,2.63417 0.43347,1.53382 0.43347,3.35107 0,2.15069 -0.58352,3.88457 -0.56685,1.73389 -1.61718,2.96762 -1.05034,1.23372 -2.55082,1.9006 -1.4838,0.66688 -3.33439,0.66688 -1.01699,0 -1.9673,-0.15005 -0.9503,-0.13337 -1.85059,-0.35011 -0.88361,-0.23341 -1.71721,-0.48349 -0.8336,-0.26675 -1.63386,-0.51683 v -19.72296 q 0,-1.067 -0.0333,-2.13401 -0.0167,-1.08368 -0.0667,-2.05065 -0.05,-0.98365 -0.15005,-1.68387 z m 0,23.59086 q 0.61686,0.25007 1.11702,0.43347 0.51683,0.16672 1.00032,0.28342 0.48349,0.10003 0.95031,0.15005 0.48348,0.05 1.01699,0.05 1.10035,0 2.03398,-0.45014 0.93363,-0.45014 1.60051,-1.26707 0.68355,-0.81693 1.06701,-1.96729 0.38345,-1.16704 0.38345,-2.56749 0,-1.38378 -0.25008,-2.5008 -0.25008,-1.11702 -0.73357,-1.88393 -0.46681,-0.78359 -1.16703,-1.20039 -0.70023,-0.4168 -1.60051,-0.4168 -0.78359,0 -1.56717,0.35012 -0.78358,0.33344 -1.50048,0.9503 -0.70022,0.61686 -1.31709,1.48381 -0.61686,0.85027 -1.03366,1.88393 z"
           style="font-style:normal;font-variant:normal;font-weight:normal;font-stretch:normal;font-size:34.14422607px;line-height:0.35566902px;font-family:'Andika New Basic';-inkscape-font-specification:'Andika New Basic';letter-spacing:0px;fill:#7776e4;fill-opacity:1;stroke-width:0.23784859px"
           id="path2466" />
      </g>
    </g>
  </g>
</svg>
